<svg width="359" height="300" viewBox="0 0 359 300" fill="none" xmlns="http://www.w3.org/2000/svg">
<path fill-rule="evenodd" clip-rule="evenodd" d="M143.731 210.694C147.84 209.739 149.853 211.404 152.963 212.789C155.854 214.075 159.246 215.101 161.829 216.097C155.746 215.788 149.12 212.928 143.731 210.694ZM182.877 217.178L180.235 217.152C182.173 215.685 185.701 214.521 187.782 213.332C194.683 209.387 192.279 206.222 197.9 207.742C199.503 208.176 201.001 208.548 202.709 208.865C206.252 209.523 209.872 209.442 213.144 210.096C206.842 214.196 191.761 217.178 182.877 217.178V217.178ZM125.513 199.113C132.35 199.309 130.872 199.664 135.361 203.076C136.758 204.138 142.878 207.551 143.858 208.778C141.537 208.294 140.777 209.168 138.283 207.908C136.743 207.13 135.169 205.974 133.791 205.115C130.481 203.051 128.317 201.528 125.513 199.113H125.513ZM151.414 209.978C159.054 208.479 166.015 206.447 172.269 203.448C177.383 200.995 177.194 201.504 183.347 202.78C184.623 203.044 192.105 205.991 193.093 206.615C190.608 210.286 181.34 215.849 174.045 216.385C168.557 216.789 154.864 212.485 151.415 209.978L151.414 209.978ZM242.116 195.274C241.367 195.845 241.33 196.071 240.663 196.761C239.841 197.61 239.458 197.843 238.6 198.629C234.23 202.627 229.402 205.08 223.467 206.555C223.557 206.47 223.697 206.216 223.74 206.302C224.18 207.159 223.392 206.431 225.422 204.948L231.93 199.784C233.292 198.623 240.248 195.667 242.116 195.274H242.116ZM191.202 203.764L195.416 203.919C194.32 205.689 192.795 204.759 191.202 203.764ZM213.848 207.937C210.341 207.937 200.832 207.406 197.768 206.008L196.596 205.174C198.129 203.321 197.446 204.096 201.558 204.096C215.2 204.096 217.871 202.017 228.074 200.493C224.373 203.739 219.504 207.937 213.848 207.937ZM144.35 190.771C148.324 191.875 153.675 194.677 158.05 196.298C162.809 198.06 168.242 199.737 173.229 200.765C169.193 204.219 156.066 207.574 151.527 208.22C144.603 209.205 139.759 203.502 132.673 199.083L134.326 198.077C136.644 197.036 136.329 197.51 139.228 195.69C141.825 194.06 142.945 193.151 144.349 190.771H144.35ZM114.851 196.414C121.523 198.087 120.993 197.985 125.372 201.328C127.057 202.615 132.577 206.886 133.901 207.275C129.472 207.345 122.557 203.104 118.936 200.414C116.87 198.881 115.866 198.49 114.851 196.414ZM149.939 178.71C157.697 185.583 165.811 192.959 176.578 198.695C175.48 199.749 174.042 199.362 172.554 198.953C160.932 195.755 157.216 194.546 145.668 189.21L149.939 178.71ZM106.496 184.231C108.567 185.188 107.384 184.568 109.502 187.051C113.025 191.18 115.186 192.505 117.86 195.422C110.531 193.633 109.125 190.652 106.496 184.231ZM196.919 202.084C192.101 202.466 183.234 201.832 180.511 198.935C184.796 196.065 188.962 193.717 192.919 190.503C194.853 188.932 196.965 187.353 198.942 185.793C201.034 184.142 202.383 182.225 204.537 180.75C204.12 188.617 200.598 196.594 196.919 202.084H196.919ZM97.0297 181.828L103.357 181.342C104.134 184.666 105.974 187.022 107.047 189.9C102.998 187.935 99.0169 183.319 97.03 181.828L97.0297 181.828ZM106.526 180.688L111.578 178.84C113.327 180.397 113.977 181.822 115.223 183.393C115.963 184.325 116.574 184.792 117.306 185.66L127.876 197.222C120.5 197.146 119.478 194.257 115.711 190.59C113.297 188.241 108.338 183.615 106.526 180.688H106.526ZM113.869 178.287L120.353 175.524C127.47 180.261 128.388 181.689 137.292 186.79C139.29 187.934 141.807 188.777 143.395 190.23C141.715 192.581 139.149 194.505 135.606 195.985C130.454 198.138 129.348 195.868 126.631 193.366L116.875 182.737C115.586 181.119 115.034 179.937 113.87 178.287L113.869 178.287ZM237.137 195.032L245.281 184.971C248.093 181.204 250.577 176.959 252.534 173.548C253.651 174.699 252.401 176.499 250.917 180.881C249.9 183.883 248.046 187.168 246.329 189.848C244.858 192.143 239.913 194.572 237.137 195.032ZM150.31 170.967C165.756 172.249 176.31 173.261 192.048 171.886C196.025 171.538 201.718 170.502 205.368 170.577C205.368 179.177 205.144 178.989 194.614 187.344C192.201 189.258 179.989 198.412 178.242 198.053C175.754 197.542 163.684 188.76 161.664 187.006L154.095 180.479C149.345 176.299 150.305 178.203 150.31 170.967ZM93.1277 166.465C94.6199 168.114 96.4386 170.905 97.9006 172.933C99.3742 174.976 101.792 177.525 102.561 179.548C100.661 180.066 98.7009 180.24 96.6196 179.89C94.383 179.513 93.8418 178.6 92.5512 177.214C89.9575 174.426 91.5336 169.928 93.1277 166.465V166.465ZM144.47 188.76C137.368 185.843 127.337 178.732 122.132 174.746C125.12 172.799 128.409 171.752 131.322 170.172C133.292 169.104 133.85 168.096 136.381 168.427C141.621 169.113 142.062 170.21 145.338 174.143C148.578 178.031 150.633 177.404 144.47 188.76ZM198.793 202.114C201.562 196.599 203.545 193.109 205.036 186.007C207.264 175.393 204.046 181.289 213.345 171.082C214.658 169.64 214.495 168.915 216.355 168.255C222.505 166.073 223.342 168.374 229.648 170.546C235.813 172.668 242.993 174.202 250.196 173.606C248.487 179.359 236.671 193.302 233.214 196.242C228.627 200.141 206.538 203.294 198.793 202.114ZM98.6892 157.134C98.7931 163.029 99.9015 168.589 100.687 173.456C94.2137 165.815 93.5906 165.02 95.9198 161.049C96.8411 159.479 97.7892 158.038 98.6895 157.134H98.6892ZM143.978 170.037L148.891 170.689L148.934 174.744C147.061 174.343 147.281 174.246 146.069 172.948C145.019 171.823 144.613 171.413 143.978 170.037H143.978ZM206.384 175.946L206.645 170.188L212.786 169.038C212.093 170.366 210.884 171.318 209.895 172.484C208.759 173.822 207.89 175.111 206.384 175.946H206.384ZM249.215 188.76C250.048 186.508 251.419 183.909 252.433 181.4C253.537 178.665 254.037 176.107 255.038 173.486C257.319 172.216 261.503 171.543 264.376 170.008C267.373 168.407 269.634 166.625 271.704 164.965C270.096 168.639 264.641 175.954 262.002 178.264C258.767 181.095 252.676 187.36 249.215 188.76ZM139.863 165.175L147.673 160.961C149.087 162.76 148.95 166.755 148.954 169.135C139.215 167.948 142.069 167.782 139.863 165.176V165.175ZM205.799 157.851L215.047 163.667C215.088 163.694 215.663 164.084 215.663 164.085C216.239 164.514 216.19 164.487 216.55 164.843C214.712 167.657 212.693 167.993 206.718 168.446L205.799 157.851ZM100.563 159.324C101.067 160.938 104.238 166.543 105.16 168.251L110.748 177.327L109.424 178.079C103.784 180.455 103.812 178.251 102.492 173.249C101.641 170.023 100.29 162.469 100.563 159.324V159.324ZM149.353 159.571C156.535 156.407 180.992 137.468 183.369 136.502C184.573 137.675 185.383 138.428 186.437 139.759L196.663 149.949C206.316 158.318 204.426 154.869 205.243 168.834C178.177 171.599 177.524 171.492 150.644 169.407L149.353 159.571ZM251.333 172.046C241.417 172.543 231.051 170.794 223.774 166.704C226.87 165.101 235.934 162.901 240.163 161.257C245.46 159.199 250.769 156.086 255.142 154.401C256.183 164.721 253.26 166.909 251.334 172.046H251.333ZM102.899 159.742C105.219 163.319 116.339 171.926 118.817 174.476L112.442 177.242C111.058 173.596 105.997 168.062 102.899 159.742ZM103.606 158.242C105.118 157.131 104.446 158.134 110.526 160.611C118.52 163.869 124.176 165.699 132.856 167.666L128.721 170.067C118.459 175.298 121.113 173.919 116.883 170.721L107.041 161.608C106.239 160.734 103.665 158.804 103.606 158.242L103.606 158.242ZM93.2511 162.713C91.9846 161.089 89.9194 157.787 89.3816 155.841L97.8931 155.313C96.7666 157.399 94.7136 160.896 93.2508 162.714L93.2511 162.713ZM102.253 154.763L126.48 150.011C127.381 151.988 130.133 155.364 131.724 157.659C133.596 160.361 135.533 162.97 137.39 165.324C135.086 167.576 131.929 166.141 128.51 165.131C122.776 163.439 105.321 157.762 102.254 154.763H102.253ZM78.2873 154.672L86.8919 156.024C88.1915 158.297 90.3536 161.161 91.4783 163.422C92.5658 165.606 91.6503 165.965 90.8375 168.099C90.2852 169.55 89.879 171.304 89.5315 173.006C87.0027 171.34 79.6457 158.687 78.2876 154.673L78.2873 154.672ZM257.02 158.24L257.015 154.269C257.226 152.866 257.286 153.133 259.235 152.159L257.87 156.94C257.233 158.333 257.355 157.831 257.02 158.24ZM219.073 164.363L226.622 153.79C233.121 144.312 242.047 128.586 245.682 117.793C251.18 119.274 251.097 122.097 252.92 131.911C254.016 137.813 254.898 145.46 254.898 151.4C254.898 154.81 223.255 166.594 220.312 165.227C219.659 164.923 219.184 164.448 219.073 164.364V164.363ZM128.032 149.661C130.195 148.66 140.965 145.702 143.669 145.218C145.21 149.463 147.031 154.249 147.804 159.082C145.618 160.84 141.806 163.141 139.124 164.378C136.719 162.238 130.015 152.759 128.032 149.661ZM79.8829 141.169L85.9365 154.311C83.8166 154.392 81.937 154.117 79.9664 153.485C75.4524 152.039 74.6697 148.183 76.5166 144.99C76.9944 144.163 77.2849 143.717 77.8619 142.976C78.093 142.68 78.2498 142.455 78.5536 142.166C79.5529 141.215 78.643 141.859 79.8826 141.168L79.8829 141.169ZM101.242 153.53C102.53 150.865 114.466 135.763 117.001 134.567C118.608 136.772 119.767 139.285 121.141 141.599C122.517 143.915 124.091 146.21 125.389 148.519L101.242 153.53V153.53ZM83.6336 144.857C86.9777 148.032 92.4732 150.887 96.7556 154.132L88.9839 154.589C86.6818 153.172 84.4219 147.329 83.6339 144.858L83.6336 144.857ZM81.0527 139.098C82.4288 137.772 83.4526 136.534 85.7209 135.737C86.5971 138.29 88.6678 141.138 90.1816 143.499C91.6282 145.754 94.3557 148.918 95.3073 150.949C92.8408 150.064 86.4789 145.181 84.2042 143.113C80.1727 139.445 82.3491 141.436 81.0527 139.098ZM255.422 171.235C256.525 163.925 258.905 160.483 260.883 153.639C261.884 150.178 261.189 150.749 263.985 149.004C268.472 146.204 274.996 140.635 278.227 136.498L280.427 134.477C280.158 141.055 278.081 155.096 274.386 159.155C270.016 163.956 264.532 169.689 255.422 171.235H255.422ZM184.505 135.497C185.376 134.495 186.06 134.32 187.132 133.464L196.058 126.523C197.886 132.472 204.382 148.317 203.77 154.462L193.54 145.791L184.505 135.497ZM149.11 158.451C147.878 153.267 146.167 149.222 144.931 144.619C152.775 143.175 178.411 132.838 180.693 132.857L182.524 135.381C181.57 136.003 180.392 137.216 179.109 138.115L166.328 147.248C162.475 149.924 152.819 156.635 149.11 158.451ZM90.9463 131.131C91.8287 132.363 91.9974 134.134 92.3405 135.634L96.1698 148.909L91.2091 142.028C89.6357 139.58 88.2322 137.033 86.7368 134.475C88.2052 133.259 89.2586 132.339 90.9463 131.131ZM71.7143 131.626L78.2865 139.876L74.3851 145.037C73.2051 140.722 71.8339 136.376 71.7143 131.626ZM281.2 143.985C281.411 141.266 281.848 138.794 282.008 136.05C282.235 132.172 281.642 132.011 283.472 129.073C283.861 131.685 282.982 137.63 282.326 140.491C282.209 141.001 282.083 141.569 281.943 142.07C281.898 142.231 281.773 142.702 281.72 142.853C281.399 143.759 281.351 143.701 281.2 143.985ZM118.294 132.496C120.975 130.743 127.29 124.07 129.263 121.663C132.359 123.691 141.478 138.722 143.147 144.257L127.374 148.566C125.712 146.708 118.538 134.858 118.294 132.496V132.496ZM100.166 151.637C100.173 145.239 101.086 138.666 102.179 132.612C103.616 124.649 102.977 121.57 109.627 119.293C110.143 119.906 115.871 132.263 116.079 133.154C113.463 136.237 110.707 139.049 108.12 142.26C106.723 143.995 105.874 144.995 104.388 146.762C103.028 148.379 101.727 150.544 100.166 151.637H100.166ZM262.457 147.708C263.825 138.683 265.603 131.898 266.081 122.083C277.561 118.322 271.525 120.444 278.8 115.421C279.551 118.704 279.985 122.864 280.177 126.422C280.468 131.793 279.289 132.725 276.392 135.667C269.56 142.61 274.196 138.522 266.599 144.826C265.288 145.913 264.212 146.799 262.457 147.708ZM183.338 134.534L181.71 131.866L191.263 128.305L183.337 134.534H183.338ZM72.2651 119.158C72.6862 119.893 77.2459 134.622 77.5502 136.005C74.7828 132.53 71.3124 128.8 71.4675 124.527C71.5318 122.745 71.62 120.462 72.2651 119.158ZM98.5027 148.636C98.1171 148.22 98.1774 148.348 97.7906 147.66L95.1597 139.62C94.2922 136.485 93.0625 132.477 92.8838 129.315L102.159 123.547C101.742 127.419 100.491 131.712 99.8815 135.664C99.2386 139.829 99.1691 144.883 98.5024 148.636H98.5027ZM200.392 122.444C200.298 122.375 200.638 122.162 200.68 122.246L219.148 106.18C221.052 104.511 223.264 101.635 225.829 100.748C227.041 103.06 230.275 106.461 232.314 108.008L201.663 122.63C201.593 122.667 201.434 122.76 201.378 122.79C201.323 122.821 201.188 122.894 201.097 122.951C200.972 122.861 200.705 122.613 200.683 122.741C200.664 122.857 200.505 122.525 200.392 122.443V122.444ZM251.98 120.523C256.531 121.349 258.993 122.389 264.269 122.321C264.473 128.732 262.519 139.52 260.956 146.046C260.078 149.716 260.322 150.269 256.741 151.369C256.708 136.201 253.174 130.142 251.981 120.523H251.98ZM130.615 120.013L158.694 95.8242C161.993 102.547 164.552 108.285 168.093 114.464C171.513 120.428 178.008 128.92 179.527 131.774C172.224 133.423 152.976 142.154 144.531 143.508C142.759 141.266 139.062 131.581 132.547 123.269C131.008 121.306 131.568 122.351 130.615 120.013ZM111.163 118.272C114.022 116.834 118.385 113.877 121.425 113.035L126.721 118.354C126.957 118.583 127.562 119.227 127.681 119.379C128.58 120.53 127.9 119.465 128.522 120.671C128.252 121.133 119.458 130.82 117.493 131.532C115.566 129.091 112.115 121.696 111.163 118.273L111.163 118.272ZM217.348 163.705C202.832 154.678 206.099 157.871 203.941 148.129C201.732 138.154 198.003 130.088 197.01 125.714C207.314 122.7 228.499 110.592 233.512 109.194C236.294 111.328 240.761 115.163 244.479 116.682C241.463 128.91 223.99 156.841 217.349 163.705L217.348 163.705ZM105.075 120.3L106.959 113.065L109.186 117.748L105.075 120.3H105.075ZM247.672 112.898L248.878 115.28C249.189 116.246 249.418 116.936 249.492 118.033L246.622 116.774L247.673 112.899L247.672 112.898ZM282.55 110.11C283.042 115.326 285.391 123.064 282.335 127.303C281.752 124.476 281.729 121.151 281.277 118.238C280.537 113.473 279.641 113.501 282.55 110.11ZM75.059 109.75C76.6883 113.651 77.5663 118.316 79.2293 122.504C80.8109 126.489 82.9948 130.445 84.4475 134.114C83.3519 135.428 81.9519 136.913 80.5606 137.805C79.1062 136.12 76.3697 127.029 75.591 124.157C73.9628 118.152 71.9031 114.987 75.059 109.749V109.75ZM69.3461 121.809C67.9555 116.237 67.2792 111.92 68.0192 106.002C68.1109 105.265 68.2249 104.21 68.4071 103.504L69.4361 101.378C70.0763 104.015 70.4196 108.788 70.9568 111.936C71.4131 114.613 69.8184 120.871 69.3458 121.809H69.3461ZM110.119 104.694C114.259 106.588 117.445 109.961 120.072 111.37C118.941 113.035 117.46 113.264 115.474 114.382C113.89 115.273 112.386 116.292 110.611 116.815C108.127 112.786 107.172 108.501 110.119 104.694V104.694ZM92.5439 128.293C91.4157 120.764 89.2341 106.689 90.5774 99.1849C104.929 98.4301 103.829 102.928 104.986 106.477C106.632 111.525 105.79 112.834 103.304 120.263C102.653 122.211 103.085 121.571 101.718 122.558C99.5971 124.09 94.6315 127.367 92.5442 128.293L92.5439 128.293ZM262.454 91.953C263.695 97.4564 265.766 115.653 264.302 120.913C261.21 121.192 254.108 120.604 252.035 118.909C251.285 118.296 248.367 111.33 249.326 108.306C250.113 105.822 251.527 99.0991 253.294 97.7436C254.541 96.7862 261.357 92.453 262.454 91.9527V91.953ZM244.327 103.403C244.966 104.376 246.535 108.248 246.722 109.292C247.06 111.173 246.33 112.901 245.433 114.581C244.974 115.44 245.133 115.143 244.819 115.553C240.778 114.052 238.061 110.648 234.895 108.847C236.036 107.202 243.25 103.723 244.327 103.403H244.327ZM88.7345 99.727C88.7345 104.927 88.7045 110.119 89.1785 115.293C89.5865 119.752 90.7764 125.105 90.9606 129.313C89.1672 130.772 87.8373 131.817 86.153 132.974C83.5454 128.9 76.8751 112.247 76.7532 108.082C76.6583 104.85 84.5173 99.471 88.7348 99.7267L88.7345 99.727ZM285.346 98.2267C286.969 102.725 288.282 112.45 286.3 117.539C285.709 119.055 285.914 118.389 285.44 118.988C284.92 115.639 284.616 111.93 284.004 108.298C283.553 105.619 284.826 101.329 285.346 98.2264V98.2267ZM105.45 102.486L108.401 103.667L107.252 107.424C107.009 107.072 106.918 107.096 106.59 106.364C106.546 106.267 106.255 105.381 106.214 105.256C105.943 104.442 105.644 103.498 105.451 102.486H105.45ZM73.0025 93.0053C73.2982 96.2225 73.4515 99.1218 73.9529 102.263C74.6641 106.72 75.5223 106.652 72.7587 110.108C72.1089 107.208 71.739 104.326 71.4841 101.387C71.1224 97.2076 70.5357 95.5573 73.0022 93.005L73.0025 93.0053ZM247.933 107.05L245.695 102.469L249.819 99.865L247.933 107.05H247.933ZM237.325 88.5638C239.119 90.1154 243.235 99.2233 243.745 101.946L233.815 107.482C233.287 106.764 227.5 100.887 226.448 100.323C227.112 98.6739 235.604 90.0106 237.325 88.5641V88.5638ZM129.783 119.305C129.045 118.884 129.568 119.245 128.918 118.653C128.368 118.152 128.427 118.14 127.949 117.647C126.172 115.817 123.692 114.068 122.716 111.73C125.656 110.837 146.84 99.5853 154.607 97.2047L136.055 113.815C134.212 115.437 131.66 118.113 129.783 119.306V119.305ZM98.1974 68.9089C98.1974 74.3284 98.9773 79.9636 99.7508 85.1454C100.493 90.1177 102.182 95.2442 102.865 99.9351C98.1494 98.9178 95.921 98.1047 90.4543 98.1047C91.4734 87.4035 91.6162 84.4374 93.9727 74.1518C94.8117 70.4887 94.8544 70.0982 98.1977 68.9089H98.1974ZM159.711 95.2238C161.516 93.6987 171.664 89.8055 174.702 89.2246L185.891 106.196C188.642 111.008 193.88 119.913 195.41 125.532L180.95 131.135C172.301 121.702 165.018 107.053 159.711 95.2238ZM121.918 111.113C119.259 110.063 114.788 105.246 110.551 103.566C113.144 92.5289 126.114 72.1253 133.451 61.8327L137.649 56.6957C140.77 58.1553 149.235 62.6012 149.94 65.9267C151.544 73.4851 151.326 74.8263 154.123 83.4588C155.31 87.1248 157.16 91.0361 157.987 94.5639C151.503 96.0459 129.584 107.753 121.917 111.114L121.918 111.113ZM268.908 87.4388C271.81 91.2325 278.078 107.862 278.372 113.677C275.066 116.434 272.508 119.778 266.329 120.7C266.329 113.993 266.156 108.031 265.486 101.45C264.589 92.6363 262.561 91.6603 265.584 89.586C266.813 88.7416 267.499 88.1046 268.909 87.4391L268.908 87.4388ZM171.629 85.7417L173.294 87.9652L163.435 92.0936C164.676 90.6729 170.117 86.4823 171.629 85.7417H171.629ZM252.718 96.6046C253.851 87.7039 256.235 80.6591 256.249 70.7395C258.102 73.3987 260.17 81.9904 261.151 86.019C262.462 91.3995 262.818 89.9812 259.254 92.5222C257.213 93.9781 254.98 95.5227 252.718 96.6046H252.718ZM210.406 76.9061C212.425 79.7052 214.823 85.6942 216.818 88.9624C218.705 92.0522 223.511 97.8815 224.354 100.323C219.405 104.186 204.915 117.726 196.733 124.422C195.544 123.447 184.429 97.9636 175.533 89.1609L177.389 87.9271C182.898 85.4879 207.121 77.427 210.406 76.9064V76.9061ZM270.536 86.1019C271.818 84.9769 272.921 83.5892 274.316 82.6082L274.773 83.1931C276.091 85.3564 278.672 93.7435 279.325 96.0805C280.712 101.046 283.294 106.851 279.754 110.619C278.472 106.122 277.429 102.008 275.682 97.7325C274.195 94.0951 271.537 89.2755 270.536 86.1022V86.1019ZM277.325 84.1354C279.341 85.8816 280.917 88.8353 282.493 91.5739C284.059 94.2944 283.724 98.554 282.857 101.824L277.325 84.1354ZM276.588 80.3405L280.321 75.2192C281.939 78.025 282.971 84.9964 283.224 88.6508C281.474 86.9033 279.213 82.9487 276.587 80.3405H276.588ZM71.4661 91.2639C71.2531 87.403 72.3949 79.6944 73.6168 76.5316L72.7488 88.5175C72.5346 89.9995 72.0955 90.0767 71.4661 91.2639ZM212.175 76.4999L219.664 73.9984C222.287 73.2465 225.002 72.6543 227.613 71.9079C229.319 73.2011 235.61 84.2331 236.892 87.0619C235.919 89.1443 227.711 96.9975 225.646 98.5549C221.302 94.329 214.697 83.8545 212.175 76.4996V76.4999ZM245.311 101.061L238.509 86.853C240.341 85.9404 248.515 76.1373 250.623 73.5215C252.126 71.6547 252.806 70.0772 254.742 68.6697C254.858 74.7556 253.851 81.918 252.796 87.6436C251.159 96.5357 251.975 98.6259 245.311 101.061V101.061ZM174.335 87.662L172.423 84.6158C174.81 83.5854 178.221 80.2983 180.66 78.6669C183.487 76.7763 186.163 74.7204 189.006 72.8723L205.768 61.8251L210 75.738C205.16 76.6608 197.058 79.6089 192.245 81.3261C186.935 83.2202 179.48 86.4275 174.335 87.6623L174.335 87.662ZM258.923 66.4168C261.026 65.5883 264.471 65.8188 267.062 65.8188C267.917 68.9013 270.389 72.3622 271.304 75.179L259.794 67.1294C259.036 66.5748 259.281 66.7354 258.923 66.4171V66.4168ZM88.8567 98.0753C83.578 99.7832 83.0792 99.3586 78.75 102.532C76.3932 104.259 75.3276 108.132 74.7197 93.2998C74.5541 89.2485 75.0002 88.615 78.5324 84.5433C81.951 80.6032 87.6569 74.9285 92.4819 72.4203C91.9989 76.4 90.7715 80.5517 90.1286 84.8268C89.4588 89.2851 89.1235 93.5593 88.8564 98.075L88.8567 98.0753ZM258.768 71.3096C260.281 73.5279 261.299 74.2676 263.752 78.1638C265.222 80.499 266.724 83.3587 268.232 85.6832C266.957 86.864 265.762 88.2146 263.992 89.1015C263.775 88.787 263.9 89.2366 263.453 88.0621L261.396 79.9979C260.581 77.2079 259.675 74.0107 258.768 71.3096ZM259.629 69.2691C262.537 70.4145 272.942 78.2482 273.977 80.82C273.113 82.44 271.44 83.5958 269.891 84.5413C268.63 83.3549 264.488 75.8771 262.421 73.2331C261.093 71.5351 260.399 70.9878 259.629 69.2691H259.629ZM151.137 65.6657C152.087 66.7482 166.643 77.5658 170.478 84.6612L158.972 93.6033C156.835 88.1759 150.958 71.5832 151.137 65.6657ZM237.724 85.7414C236.135 81.2673 231.614 75.6047 229.487 71.1595C236.77 69.8462 246.608 66.7564 253.945 66.6263C252.437 69.4536 242.072 81.7911 239.313 84.555C238.295 85.5752 238.948 85.0916 237.724 85.7414ZM95.6492 67.9765L98.0374 60.8238L98.0618 66.6563C96.6857 67.666 97.426 67.4175 95.6492 67.9762V67.9765ZM269.031 65.9378C273.728 65.9934 277.509 66.5026 278.894 70.1363C279.751 72.3837 279.719 72.9322 278.657 74.973C278.171 75.9068 277.859 76.3835 277.37 77.0586L275.056 79.1692C273.911 74.6971 270.594 70.0947 269.031 65.9375V65.9378ZM257.111 64.9373C258.335 62.4589 260.568 60.1868 261.291 57.4756L262.834 58.9157C262.925 59.0382 263.625 60.2881 263.888 60.7481C264.593 61.982 265.228 63.0493 265.776 64.3175L257.111 64.9373ZM207.29 61.1346L215.766 55.8518C217.546 57.2297 225.747 68.0705 226.798 70.7375L211.256 75.2395C210.199 70.6744 207.729 66.4162 207.29 61.1346ZM222.359 52.4922C224.051 51.1359 228.382 49.1306 230.536 48.1511C236.276 45.542 234.28 46.8049 241.544 52.7922C244.111 54.9087 249.926 60.3096 251.269 62.5154C247.294 61.1305 242.209 58.7353 237.24 57.0146C234.683 56.1282 223.319 53.1106 222.359 52.4919V52.4922ZM138.479 55.3731C139.818 52.3252 144.286 52.2839 148.249 51.7423L149.223 62.4935L138.479 55.3734V55.3731ZM149.695 51.4443C180.579 49.3087 171.791 48.2745 204.659 50.9339L205.584 60.7772C203.507 61.4797 199.068 64.7037 196.812 66.1109C188.921 71.032 181.526 76.6768 174.093 82.3093C173.743 82.5741 173.241 82.9498 172.946 83.127C171.647 83.904 172.924 83.2958 171.569 83.8054C168.05 80.7062 161.698 73.0987 154.649 67.0878C150.354 63.4244 149.695 65.1399 149.695 51.4443H149.695ZM236.154 45.6212L242.193 43.04C245.427 47.462 249.832 54.721 252.009 60.1746C250.547 59.3263 243.144 51.1749 240.409 49.1286C238.807 47.9308 237.591 46.8067 236.154 45.6212ZM109.196 102.486C105.005 100.957 104.922 101.415 103.872 96.9911C101.755 88.0595 99.795 78.0678 99.795 68.8172C99.795 66.9083 104.25 65.3959 107.107 63.968C109.74 62.6515 113.122 61.2629 116.043 60.2066C120.408 58.6279 131.285 53.6894 135.711 55.4636C135.391 57.2806 133.362 59.521 132.16 61.0633C124.393 71.0378 112.625 91.2939 109.197 102.486H109.196ZM265.438 47.0933C268.446 49.653 275.5 61.4547 276.712 65.606L267.922 64.2724C266.772 61.7721 264.456 59.076 263.411 56.845C262.196 54.2513 265.005 50.3243 265.438 47.093V47.0933ZM217.751 54.8935C220.618 52.6767 222.608 54.166 226.321 55.2008C235.168 57.667 240.459 59.532 248.694 63.1343C249.477 63.4768 249.972 63.6645 250.709 64.0297L252.836 65.5461L228.582 70.1916L217.751 54.8935H217.751ZM83.6042 54.7454C85.2579 52.647 86.4047 50.3685 88.2901 47.9925C92.2518 42.9999 99.4045 34.2769 105.694 31.639C105.109 33.701 103.44 36.8045 102.444 39.2375L99.8617 46.871C99.8326 46.7988 99.7281 47.0872 99.6431 47.1812C98.3674 48.2419 92.706 48.7316 87.168 52.6491L83.6042 54.7457V54.7454ZM206.105 51.1723C207.681 51.3879 209.849 51.6192 211.428 51.9748C214.489 52.6639 213.349 53.211 215.077 54.6837C205.626 61.3467 206.755 59.5574 206.364 56.4847C206.158 54.8746 205.961 52.9505 206.105 51.1723H206.105ZM99.8564 65.7579C98.4398 56.7868 101.998 52.4535 103.607 48.1712C116.726 47.7044 120.793 49.5168 131.319 53.4545C130.255 54.1759 117.508 58.0485 114.836 59.0228C109.166 61.0898 104.734 63.418 99.8561 65.7579H99.8564ZM74.8152 86.1913C74.988 79.6752 77.19 66.3397 80.4873 61.4756C83.9435 56.3762 90.8966 50.693 99.5471 48.9839C98.8519 56.1751 96.3071 59.4057 94.1593 66.6801C92.3539 72.7937 90.0929 70.7166 82.327 78.1536C79.6318 80.735 77.504 83.3895 74.8152 86.1915V86.1913ZM142.154 51.2694C143.154 49.3218 146.72 45.3165 148.526 44.2424L148.429 50.1517L142.154 51.2694H142.154ZM206.066 45.2312C208.551 46.4287 209.234 48.8614 211.175 50.3624L205.983 49.8092L206.066 45.2312H206.066ZM254.387 46.9781L259.893 54.6034C261.125 56.8173 257.947 61.794 256.34 62.9635L254.387 46.9781H254.387ZM149.57 49.9725C149.57 43.3528 149.071 42.9775 152.983 39.6202C158.019 35.298 162.812 30.83 168.59 27.0182C177.166 21.3615 175.087 20.74 185.864 27.9756C193.955 33.4083 194.795 35.0769 201.295 40.2773C205.819 43.8976 204.765 42.809 204.597 49.5819C189.274 48.1988 177.879 47.3177 162.246 48.6979C158.449 49.0328 153.137 50.0019 149.57 49.9728V49.9725ZM244.175 42.3818L250.098 40.8951C253.058 45.3028 254.413 54.6671 254.59 60.8028C253.397 59.2672 250.882 53.8334 249.664 51.6149C247.881 48.3708 245.875 45.7088 244.175 42.3818ZM210.654 31.637C215.243 34.6997 228.098 40.4964 232.928 45.6805C229.636 47.1693 226.371 48.7933 223.41 50.315C221.183 51.4592 221.004 52.3162 217.987 51.825C212.723 50.9683 214.202 51.1114 209.465 46.2171C208.372 45.0886 206.624 43.9276 206.648 42.0873C206.686 39.1275 209.161 33.1231 210.654 31.637H210.654ZM252.502 40.3716C258.791 39.7899 260.091 39.674 262.823 43.5755C264.688 46.2404 263.454 51.0462 261.656 53.7831C259.788 50.9482 253.05 42.9251 252.502 40.3716ZM237.504 24.7648C241.228 26.8754 244.853 25.8932 249.028 37.0682C247.55 35.9545 247.376 35.1339 246.197 33.8454C242.019 29.284 236.981 25.0971 236.929 24.9751L237.504 24.7648H237.504ZM257.654 38.563L251.763 38.9887L247.738 31.0945L253.072 34.3392C254.922 35.9763 256.424 36.4952 257.654 38.5627V38.563ZM211.574 30.0181C213.649 26.9909 221.457 21.5492 224.905 23.8894C225.706 24.4333 227.769 26.2477 228.62 27.0244C231.607 29.7469 239.307 38.5621 241.224 41.9296C236.606 44.4383 235.167 45.0296 233.299 43.6331L218.838 34.1686C216.707 32.9238 212.932 31.2627 211.574 30.0181ZM102.004 46.9729C102.129 43.4733 105.309 36.0968 106.99 33.1097C109.372 28.8786 111.886 26.9647 117.892 25.2167C115.756 28.0434 111.766 32.0193 109.21 35.7491C107.018 38.948 104.359 44.1356 102.004 46.9729ZM114.966 22.6614C118.628 19.1395 126.198 14.6302 131.626 13.7819C130.151 14.7035 129 15.7997 127.398 17.0146C122.626 20.632 123.568 20.8171 118.526 22.7737C115.01 24.1376 114.419 25.5231 113.069 24.6166L114.966 22.6614ZM239.931 24.0169C234.258 21.0918 236.248 24.383 230.169 19.2736L222.467 13.8031C222.019 13.4362 221.985 13.38 221.651 13.034C225.522 13.6885 229.383 15.5672 232.25 17.2454C234.026 18.2842 234.979 18.893 236.608 20.1839L239.931 24.0169H239.931ZM242.944 41.3595C241.529 39.5312 240.705 38.0098 239.278 36.2909C238.067 34.833 236.883 33.5014 235.398 31.9323L227.059 22.9966C231.68 23.1133 232.235 23.276 234.799 25.3296C237.864 27.7827 246.517 36.9553 248.512 39.784L242.945 41.3595H242.944ZM150.309 39.7093C150.855 34.4524 154.976 19.5245 158.787 18.0433C160.376 17.7683 170.49 18.0287 174.241 21.2844C172.349 22.8954 169.887 24.1871 167.678 25.6599C161.748 29.6125 151.667 39.0775 150.309 39.7095V39.7093ZM181.862 23.2353C180.396 22.3835 179.206 21.9409 178.269 20.6858C181.101 19.1299 206.166 29.2732 209.27 31.0366C208.499 32.6365 207.626 34.2027 206.888 36.1003L204.998 41.5088L181.862 23.2356V23.2353ZM183.1 18.6683C187.786 15.7115 198.965 12.8557 204.052 12.1354C209.501 11.3637 218.178 18.3186 222.08 21.7043C216.601 23.6659 212.886 25.6476 210.711 29.6265C206.497 28.4564 201.24 25.6863 196.758 24.0457C192.882 22.6277 184.872 20.9268 182.125 19.3641L183.1 18.6683ZM104.954 46.4933C105.524 42.3544 116.451 29.0986 120.759 24.9568C126.386 19.5474 145.98 17.4016 156.179 18.0366C153.545 23.7652 151.447 26.7351 149.899 34.2379C148.775 39.6889 149.681 41.1264 147.28 43.1742C142.782 47.011 140.678 53.3748 133.776 52.8894C130.287 52.6438 124.015 46.493 104.954 46.493L104.954 46.4933ZM163.759 16.4454L159.65 16.2429C159.877 14.7006 160.14 15.0067 161.706 15.4799C162.364 15.6789 163.25 16.0904 163.759 16.4457V16.4454ZM126.927 19.6941C130.29 17.1805 134.718 12.2818 140.59 12.2818C145.02 12.2818 156.132 12.4628 158.634 14.9229C157.212 16.3441 157.725 16.1439 154.887 16.1602C137.888 16.2574 139.661 18.0447 126.927 19.6944V19.6941ZM229.485 21.1645C226.44 21.214 225.273 21.8204 223.299 20.2098L211.206 11.5942C216.686 11.4897 218.23 13.2715 221.726 15.5145C223.918 16.9194 227.934 19.397 229.486 21.1645H229.485ZM161.801 13.6923C164.368 9.80599 173.701 4.23513 181.079 3.74159C183.958 3.54866 190.288 5.15817 193.077 6.03553C195.244 6.71734 201.937 8.74618 203.645 10.3612C195.882 11.6809 189.056 14.0796 182.462 17.0524C175.013 20.4117 170.249 16.7489 161.801 13.6923ZM211.019 9.70152C206.3 10.0062 205.378 8.77935 201.67 7.24376C198.826 6.06609 195.952 4.96146 193.198 4.1778C197.799 4.1391 208.02 7.56269 211.019 9.70152ZM142.075 10.2413C148.48 5.56702 165.074 2.7813 174.612 3.15901C168.971 6.62946 168.095 4.94312 159.771 13.0017C157.262 12.6394 154.28 11.6454 151.39 11.1798C148.26 10.6752 145.121 10.734 142.074 10.241L142.075 10.2413ZM65.8047 113.469C65.8047 128.218 70.6775 144.824 76.363 156.519C79.4542 162.877 82.865 168.539 86.4935 173.524C105.19 199.209 138.339 219.217 175.502 219.217C208.724 219.217 233.551 208.342 256.179 187.936C258.879 185.501 260.314 183.398 262.648 180.817C269.029 173.757 274.629 165.395 278.857 156.297C286.457 139.939 289.117 127.397 289.117 108.188C289.117 80.1766 276.117 51.8808 256.686 32.7416C214.094 -9.21015 142.529 -9.62133 99.6068 32.1448C93.366 38.217 92.0987 39.2419 86.7746 46.5125C83.0967 51.5345 79.6646 56.7903 76.629 62.9783C68.172 80.2165 65.8047 93.9915 65.8047 113.469V113.469Z" fill="#D7FDFF"/>
<path fill-rule="evenodd" clip-rule="evenodd" d="M281.865 202.875C281.675 202.963 281.38 202.839 281.268 203.073C280.858 203.93 280.707 203.292 280.015 203.397L273.362 203.53C259.684 203.465 257.414 204.614 248.789 199.899C246.847 202.294 248.709 202.229 245.811 203.158C244.229 203.436 235.502 204.272 235.115 202.957C234.721 201.616 234.899 202.529 235.314 201.664L238.968 192.84C233.078 191.084 218.5 177.933 192.077 176.352L192.328 191.804C203.639 193.116 222.362 196.825 228.032 203.158L191.861 203.206L190.951 203.258L190.271 203.297L179.78 203.433L179.113 160.704L174.691 160.481C173.861 163.86 174.459 177.371 174.605 181.749L174.839 197.399C174.965 200.9 175.039 201.184 174.068 203.154L170.943 203.206L135.648 203.149C142.968 198.281 160.377 193.913 170.713 193.091L170.727 176.537C162.03 176.765 153.664 178.287 145.287 180.216C136.754 182.18 130.164 184.971 122.305 187.294L128.28 201.511L128.162 203.527L113.457 203.044L109.082 194.587C106.749 196.198 105.659 196.782 103.368 198.654C99.3958 201.899 100.075 203.073 98.3776 203.527H81.9493C80.2332 202.671 80.4323 203.305 81.4819 202.13C82.9532 192.961 97.8994 168.517 102.525 162.068C117.538 141.136 134.513 139.407 138.028 135.959C133.663 132.407 134.313 134.188 133.306 127.445C132.723 123.546 131.864 125.672 127.668 119.677C123.894 114.285 121.071 110.458 118.671 102.63C114.457 88.8801 114.004 69.5104 118.064 55.4913C135.626 -5.14895 215.051 -10.3907 240.972 45.8819C250.712 67.0267 250.517 99.6191 235.054 119.598C233.47 121.644 230.27 124.54 229.43 126.647C229.43 133.787 228.615 133.341 224.54 136.606C233.145 140.656 237.739 141.337 244.992 146.841C250.957 151.367 255.92 156.32 260.184 162.182C267.372 172.065 277.056 189.134 281.866 202.875L281.865 202.875ZM153.474 5.5365C152.655 6.64899 154.814 7.33196 151.863 6.4546L150.954 7.33196C147.825 9.797 145.591 9.20744 137.617 14.9381C134.887 16.872 132.807 19.0167 130.554 20.9815L127.655 24.7726C126.036 28.1441 127.883 25.0075 125.178 27.6308C120.58 32.0901 114.847 43.9608 112.646 49.9975C110.839 54.9358 108.515 63.7812 108.957 69.4062L108.642 82.4898L108.706 85.3811L110.166 97.1511C111.203 101.121 113.031 105.268 112.961 109.008L113.804 110.262C115.166 111.835 117.833 117.328 118.523 119.432C119.833 120.475 121.986 123.908 123.339 125.523C125.635 128.264 126.373 127.427 126.613 132.336C126.042 134.319 126.502 133.561 125.057 134.789C123.797 135.859 123.903 135.421 122.593 136.045C116.091 139.141 112.317 143.213 109.267 144.446C108.037 146.794 104.798 148.953 102.789 151.179C101.762 152.318 100.628 153.332 99.5864 154.65C98.093 156.542 99.0957 156.2 96.8041 157.806C96.2233 159.33 94.562 162.117 92.9883 163.137C91.8583 165.481 88.9486 170.79 87.3161 172.855L85.0842 176.446C83.7598 181.475 79.8529 180.853 69.1881 182.263C55.0642 184.13 16.2876 190.101 19.6867 170.796C22.2126 156.45 53.001 139.805 66.2502 131.132C67.0886 129.994 67.3065 130.288 67.4156 128.108C67.5827 124.785 67.1872 126.007 66.499 125.292C62.4594 126.46 52.3865 133.189 48.5014 135.592L32.0213 146.652C7.76743 162.491 -25.59 196.601 31.3613 194.673C48.6364 194.088 63.3679 190.684 79.6026 187.964L73.0083 203.157C65.5792 203.157 58.15 203.157 50.7211 203.157C37.5328 203.157 38.9173 201.521 32.7519 207.712C14.0137 226.532 16.4526 220.198 16.2829 235.378C16.1979 242.969 16.1325 240.994 24.659 249.509C37.9116 262.745 34.4005 262.438 44.7603 262.359L77.5159 262.362C75.9768 265.335 70.1685 270.348 67.5111 272.996C64.8776 275.621 65.2969 276.685 65.445 281.581C65.5928 286.455 66.2336 285.783 69.0522 288.512C84.0293 303.017 75.2807 299.398 99.1205 299.398C153.974 299.398 208.827 299.398 263.681 299.398C287.635 299.398 279.059 302.488 293.618 288.387C296.473 285.622 296.631 286.124 296.681 280.811C296.795 268.98 292.635 273.884 284.681 262.405C292.014 262.206 299.516 262.353 306.868 262.353C316.523 262.353 323.436 263.826 327.116 260.068C331.003 256.1 334.278 252.717 338.188 248.81C346.567 240.436 345.865 243.04 345.784 234.624C345.659 221.679 346.863 225.064 339.819 218.047C334.1 212.349 326.957 203.338 321.823 203.103L289.058 203.157C286.852 198.242 284.923 192.587 282.581 187.409C280.976 183.86 276.261 175.751 275.614 172.995C272.736 169.197 269.967 164.208 267.669 160.716C257.694 145.556 249.787 142.014 236.523 133.734C239.865 132.439 242.504 130.328 245.827 129.986C246.581 129.157 246.178 129.527 247.19 128.804C247.771 128.388 247.964 128.298 248.631 127.948C249.604 127.437 250.657 127.035 251.672 126.586C253.807 125.641 255.858 124.613 257.954 123.702C263.411 120.681 269.898 117.361 275.494 114.626L284.221 109.878C286.542 108.368 290.804 105.77 292.663 105.023C296.981 103.532 307.317 96.8625 311.597 94.1271C325.073 85.5168 352.722 66.6371 357.978 52.6549C369.21 22.7776 283.918 40.5558 269.633 45.0119C268.769 46.1974 269.385 46.6024 268.965 45.7763C269.836 48.2009 269.798 48.0234 271.77 49.6556L273.843 48.9368C279.303 49.1007 286.805 46.9784 292.686 46.1939C299.275 45.3148 306.011 44.3807 312.825 44.3615C356.6 44.2401 336.778 68.5353 316.684 82.8567C308.93 88.3834 300.114 95.5512 291.206 99.9552C290.071 101.296 285.981 103.494 283.795 103.961C282.347 105.878 281.279 106.116 279.21 107.22C277.41 108.18 276.319 109.008 274.302 109.776C269.325 113.368 261.563 116.563 255.402 119.827C249.548 122.93 242.216 126.411 236.393 128.713C240.757 124.447 244.499 118.363 248.137 111.405C248.309 110.082 247.91 110.258 249.103 110.558C249.12 108.377 248.943 108.974 249.712 106.711C250.592 104.121 250.111 105.045 251.422 103.826C251.392 99.2993 253.688 95.7573 252.979 90.8027C252.795 87.9466 253.836 84.4369 253.975 81.2568C254.12 77.9438 254.002 74.9209 253.947 71.6329L252.334 58.3157C249.372 43.8869 242.214 33.0652 233.657 23.4189C225.404 14.1163 218.737 11.2951 216.713 9.16554L215.357 8.15607C205.088 4.85469 199.096 0.501359 185.526 0.0459474C175.21 -0.300049 161.52 1.28647 153.474 5.53854L153.474 5.5365Z" fill="#D7FDFF"/>
<path fill-rule="evenodd" clip-rule="evenodd" d="M187.945 138.027L187.176 138.615L175.545 138.656C169.863 137.077 163.034 137.037 156.932 135.144C152.852 133.878 142.87 130.549 143.255 126.252C152.028 131.689 162.631 134.992 175.375 135.641H187.45C201.942 134.619 209.31 131.973 219.635 126.175C219.873 128.692 221.372 127.735 214.866 131.415C212.713 132.632 209.752 133.845 207.017 134.778C202.24 136.409 193.284 138.273 187.945 138.027V138.027ZM175.456 126.757H187.37C191.373 126.336 196.066 126.22 200.187 125.69C204.196 125.174 208.534 124.131 212.045 123.936C206.703 127.161 195.093 129.813 187.375 129.521L175.438 129.525C167.375 129.819 156.541 127.107 150.857 124.013C153.698 124.067 158.478 125.09 162.028 125.592C166.013 126.155 171.614 126.44 175.455 126.757H175.456ZM186.533 134.372L176.215 134.395C169.758 133.712 163.091 132.82 157.226 131.09L145.311 125.903C142.964 124.354 143.183 124.713 142.863 121.855C149.154 124.586 152.19 127.111 160.052 128.999C176.69 132.994 206.027 131.721 219.571 121.784C220.024 124.323 220.157 124.584 214.558 127.409C205.601 131.928 196.879 133.385 186.533 134.372H186.533ZM125.939 74.5225C125.939 43.2679 151.165 16.6785 182.547 17.2683C235.953 18.272 250.258 87.5825 224.866 115.367C213.274 128.05 149.225 126.873 138.211 115.871C128.336 106.009 125.939 90.7832 125.939 74.5225H125.939ZM81.4928 202.128C84.4732 204.324 93.811 202.873 98.1073 202.873C96.5426 201.077 94.1459 200.495 92.7797 198.874C94.9308 193.325 98.5973 186.654 101.284 181.786L101.885 180.799C113.153 157.316 132.812 143.591 159.266 143.591L159.318 137.879C172.312 142.123 172.012 134.274 171.46 149.792L171.364 202.873L173.078 202.873L172.582 157.66C172.212 153.416 171.734 144.129 173.107 140.306C177 139.592 175.212 140.756 179.122 140.478C179.122 152.879 181.508 144.65 180.496 158.379L180.311 202.873H182.533L182.218 158.996C182.798 155.649 182.202 152.855 182.553 149.748C183.057 145.289 183.704 149.564 183.704 140.478C191.982 141.066 190.25 133.884 190.216 167.599C190.204 179.101 190.007 190.816 190.248 202.293L191.31 202.171L191.34 150.451C190.942 138.643 190.61 140.796 193.527 139.742L203.475 137.719L203.38 143.733C224.162 142.294 241.447 152.906 252.83 168.038C254.268 169.95 255.867 172.714 257.564 174.513C258.786 174.203 258.43 174.061 258.191 175.372L258.758 176.275C260.685 182.665 268.411 191.842 269.975 199.713L264.276 202.374L281.876 202.873C277.067 189.131 267.382 172.062 260.194 162.18C255.93 156.318 250.968 151.365 245.003 146.839C237.749 141.335 233.156 140.654 224.551 136.604C228.625 133.339 229.44 133.785 229.44 126.645C230.28 124.538 233.48 121.641 235.064 119.596C250.527 99.6165 250.722 67.0244 240.982 45.8796C215.061 -10.3934 135.636 -5.1516 118.075 55.4889C114.015 69.5078 114.467 88.8778 118.681 102.628C121.081 110.456 123.905 114.283 127.678 119.675C131.874 125.67 132.733 123.543 133.316 127.442C134.324 134.185 133.674 132.405 138.038 135.956C134.524 139.405 117.548 141.133 102.535 162.066C97.9097 168.514 82.9635 192.959 81.4922 202.128L81.4928 202.128Z" fill="black"/>
<path fill-rule="evenodd" clip-rule="evenodd" d="M232.211 73.7811C232.211 82.1494 231.509 87.4549 228.565 95.2629C226.249 101.406 222.496 103.362 217.156 106.222C187.937 121.873 140.95 113.695 133.935 94.8037C129.467 82.7698 129.161 68.913 133.564 56.8613C136.485 48.8691 137.62 49.0867 144.291 45.2299C164.566 33.507 196.465 33.0161 217.098 44.4197C219.817 45.9224 221.576 47.0381 223.93 48.7323C229.974 53.0836 232.211 66.1998 232.211 73.7814V73.7811ZM125.914 74.5255C125.914 90.7859 128.312 106.012 138.186 115.874C149.201 126.876 213.25 128.053 224.841 115.37C250.234 87.5858 235.928 18.2753 182.523 17.2713C151.14 16.6818 125.914 43.2709 125.914 74.5255H125.914Z" fill="#D7FDFF"/>
<path fill-rule="evenodd" clip-rule="evenodd" d="M150.259 72.2016C150.165 81.0768 151.556 86.4731 152.606 94.6309C147.853 90.2197 145.933 83.58 145.432 75.2309C142.267 76.2969 142.421 76.1185 141.973 80.136C141.685 82.7125 141.623 85.3737 141.644 87.9493C141.686 93.0086 142.315 96.9458 143.286 101.847C144.474 101.608 144.128 101.406 144.128 102.685C153.022 108.9 169.433 112.523 182.517 112.322C193.705 112.15 213.081 108.03 219.367 102.039C220.437 96.5204 222.798 80.2105 219.412 76.307C217.204 73.7614 204.11 69.159 199.335 68.0884C178.439 63.4033 167.763 67.1217 150.259 72.2016H150.259Z" fill="#06121E"/>
<path fill-rule="evenodd" clip-rule="evenodd" d="M143.303 101.848L144.144 102.685C144.144 101.406 144.491 101.608 143.303 101.848C142.331 96.9461 141.703 93.0092 141.661 87.9499C141.64 85.3746 141.702 82.7131 141.989 80.1366C142.437 76.1191 142.284 76.2975 145.449 75.2315C145.777 66.341 147.842 59.524 152.551 54.4985L150.275 72.2022C167.779 67.1223 178.455 63.4039 199.351 68.089C204.126 69.1596 217.221 73.7623 219.429 76.3076C222.814 80.2111 220.454 96.521 219.383 102.04C223.995 99.9608 224.998 98.8105 226.838 93.5199C231.215 80.9319 231.138 66.861 225.98 54.8954C223.431 48.9818 213.08 44.6462 207.036 42.56C187.043 35.6593 162.007 37.0022 144.016 47.931C140.463 50.089 138.167 51.2667 136.599 55.4128C133.689 63.11 131.762 72.222 133.045 81.683C134.018 88.8514 135.617 99.6541 143.303 101.848H143.303Z" fill="#040F1A"/>
<path fill-rule="evenodd" clip-rule="evenodd" d="M114.006 180.364C118.914 166.724 137.203 157.225 154.524 157.96C151.84 159.783 146.639 161.248 143.268 162.617C130.902 167.639 124.006 172.935 114.006 180.364ZM101.87 180.8C102.143 182.037 102.449 181.788 101.269 181.788C98.5826 186.655 94.9157 193.327 92.7649 198.875C94.1312 200.496 96.5278 201.079 98.0925 202.875C93.7962 202.875 84.4584 204.326 81.478 202.13C80.4281 203.305 80.229 202.671 81.9453 203.527H98.3736C100.071 203.073 99.3918 201.899 103.364 198.654C105.656 196.782 106.745 196.198 109.078 194.587L113.453 203.044L128.158 203.527L128.276 201.51C126.948 202.923 129.667 202.875 124.435 202.875C122.08 202.292 122.905 201.048 121.969 194.587C121.614 192.143 120.819 188.22 120.948 185.593C122.178 188.412 121.279 186.103 122.301 187.293C130.16 184.971 136.75 182.18 145.283 180.215C153.66 178.287 162.026 176.765 170.723 176.537L170.709 193.09L170.939 203.206L174.064 203.155C175.035 201.183 174.961 200.9 174.835 197.399L174.601 181.749C174.455 177.371 173.857 163.86 174.687 160.481L179.109 160.704L179.776 203.433L190.267 203.297L190.233 202.294C189.172 201.183 189.315 200.344 189.324 197.445C189.33 195.695 189.372 193.932 189.374 192.174C189.38 185.41 189.842 163.629 189.001 159.717L182.202 158.997L182.517 202.875H180.296L180.481 158.38L172.566 157.661L173.062 202.875L171.348 202.875L171.444 149.794C152.412 150.828 146.029 152.084 130.585 159.578C116.198 166.56 104.975 179.205 101.869 180.8H101.87Z" fill="#566566"/>
<path fill-rule="evenodd" clip-rule="evenodd" d="M235.308 201.664C234.894 202.53 234.715 201.617 235.11 202.958C235.496 204.272 244.224 203.436 245.805 203.158C248.703 202.23 246.841 202.295 248.784 199.9C257.408 204.614 259.678 203.465 273.356 203.53L280.009 203.397C280.701 203.293 280.852 203.93 281.262 203.074C281.374 202.839 281.669 202.964 281.859 202.875L264.259 202.376L269.958 199.714C268.394 191.844 260.668 182.667 258.741 176.277C257.651 176.277 257.929 176.51 258.174 175.374C257.071 175.393 257.33 175.639 257.547 174.515C255.181 173.842 248.504 168.469 243.411 165.498C225.025 154.772 212.097 153.319 191.323 150.453L191.293 202.173L190.945 203.258L191.855 203.206L192.323 191.804L192.071 176.352C218.494 177.933 233.072 191.084 238.962 192.84C240.544 190.908 241.018 189.224 241.951 187.608C241.65 190.067 241.146 193.034 240.698 195.971C240.448 197.608 240.444 198.4 240.127 199.838C239.173 204.172 240.725 201.462 238.359 202.875C233.265 202.875 236.639 203.012 235.308 201.664V201.664Z" fill="#566566"/>
<path fill-rule="evenodd" clip-rule="evenodd" d="M219.383 102.04C213.097 108.032 193.722 112.151 182.534 112.323C169.449 112.524 153.039 108.9 144.144 102.686L143.303 101.848C135.617 99.6545 134.018 88.8517 133.046 81.6833C131.762 72.2224 133.689 63.1106 136.599 55.4132C138.167 51.267 140.463 50.0893 144.016 47.9313C162.007 37.0026 187.043 35.6596 207.036 42.5604C213.08 44.6465 223.431 48.9824 225.98 54.8958C231.138 66.861 231.215 80.9322 226.838 93.5202C224.998 98.8109 223.995 99.9612 219.383 102.04ZM232.231 73.7786C232.231 66.197 229.994 53.0808 223.949 48.7295C221.596 47.0353 219.837 45.9196 217.118 44.4169C196.484 33.013 164.585 33.5042 144.311 45.2271C137.64 49.0839 136.505 48.8663 133.584 56.8585C129.18 68.9102 129.486 82.767 133.955 94.8009C140.97 113.692 187.957 121.87 217.176 106.219C222.516 103.359 226.269 101.403 228.584 95.2601C231.528 87.452 232.231 82.1466 232.231 73.7783V73.7786Z" fill="black"/>
<path fill-rule="evenodd" clip-rule="evenodd" d="M191.321 150.454C212.094 153.321 225.023 154.774 243.408 165.499C248.501 168.469 255.178 173.844 257.544 174.516C257.327 175.64 257.068 175.394 258.171 175.375C257.926 176.511 257.649 176.278 258.738 176.278L258.171 175.375C258.41 174.064 258.766 174.206 257.544 174.516C255.847 172.717 254.248 169.953 252.81 168.041C241.428 152.909 224.142 142.297 203.36 143.736L203.455 137.722L193.507 139.745C190.59 140.8 190.923 138.646 191.321 150.455V150.454Z" fill="#222829"/>
<path fill-rule="evenodd" clip-rule="evenodd" d="M101.875 180.802L101.273 181.79C102.454 181.79 102.147 182.039 101.875 180.802C104.98 179.207 116.203 166.562 130.591 159.58C146.034 152.085 152.418 150.83 171.449 149.796C172.002 134.277 172.302 142.127 159.307 137.883L159.256 143.595C132.801 143.595 113.143 157.32 101.875 180.802V180.802Z" fill="#222829"/>
<path fill-rule="evenodd" clip-rule="evenodd" d="M191.86 203.205L228.031 203.157C222.361 196.824 203.638 193.116 192.327 191.803L191.859 203.205H191.86Z" fill="#06121E"/>
<path fill-rule="evenodd" clip-rule="evenodd" d="M170.951 203.205L170.721 193.089C160.385 193.911 142.976 198.279 135.656 203.147L170.951 203.204V203.205Z" fill="#06121E"/>
<path fill-rule="evenodd" clip-rule="evenodd" d="M176.212 134.396C175.226 132.54 175.893 133.996 175.457 131.427L187.364 131.654C186.782 134.526 187.43 132.568 186.53 134.373C196.876 133.386 205.598 131.929 214.555 127.41C220.154 124.585 220.022 124.323 219.568 121.785C206.024 131.722 176.687 132.994 160.049 129C152.186 127.112 149.151 124.587 142.859 121.856C143.18 124.713 142.961 124.355 145.308 125.904L157.223 131.091C163.088 132.821 169.755 133.713 176.212 134.396L176.212 134.396Z" fill="#566566"/>
<path fill-rule="evenodd" clip-rule="evenodd" d="M182.211 159L189.01 159.72C189.85 163.632 189.389 185.413 189.382 192.176C189.381 193.935 189.338 195.698 189.333 197.448C189.324 200.346 189.181 201.186 190.242 202.297L190.276 203.3L190.956 203.261L191.304 202.176L190.242 202.297C190 190.82 190.197 179.106 190.209 167.604C190.244 133.889 191.976 141.07 183.698 140.483C183.698 149.569 183.05 145.293 182.546 149.752C182.196 152.859 182.791 155.654 182.212 159L182.211 159Z" fill="#222829"/>
<path fill-rule="evenodd" clip-rule="evenodd" d="M114.008 180.361C124.008 172.932 130.904 167.636 143.269 162.614C146.641 161.245 151.842 159.78 154.526 157.957C137.205 157.222 118.916 166.721 114.008 180.361Z" fill="#D7FDFF"/>
<path fill-rule="evenodd" clip-rule="evenodd" d="M145.461 75.2291C145.961 83.5782 147.882 90.2179 152.635 94.6291C151.585 86.4713 150.193 81.0753 150.287 72.1998L152.563 54.4961C147.854 59.5216 145.789 66.3386 145.461 75.2291Z" fill="#D7FDFF"/>
<path fill-rule="evenodd" clip-rule="evenodd" d="M172.555 157.657L180.469 158.376C181.482 144.647 179.095 152.876 179.095 140.475C175.186 140.753 176.973 139.589 173.081 140.303C171.707 144.126 172.186 153.413 172.555 157.656V157.657Z" fill="#222829"/>
<path fill-rule="evenodd" clip-rule="evenodd" d="M187.439 135.642L187.933 138.029C186.831 137.856 187.005 137.574 187.165 138.617L187.933 138.029C193.273 138.275 202.228 136.41 207.006 134.78C209.74 133.846 212.701 132.634 214.854 131.416C221.36 127.737 219.862 128.694 219.624 126.177C209.298 131.974 201.931 134.621 187.439 135.642V135.642Z" fill="#566566"/>
<path fill-rule="evenodd" clip-rule="evenodd" d="M175.52 138.658L175.35 135.643C162.605 134.995 152.003 131.691 143.23 126.255C142.845 130.552 152.827 133.88 156.906 135.146C163.009 137.04 169.838 137.079 175.52 138.658Z" fill="#566566"/>
<path fill-rule="evenodd" clip-rule="evenodd" d="M187.359 126.757L187.365 129.522C195.083 129.814 206.693 127.161 212.035 123.937C208.523 124.131 204.186 125.174 200.177 125.69C196.055 126.219 191.363 126.336 187.359 126.757Z" fill="#566566"/>
<path fill-rule="evenodd" clip-rule="evenodd" d="M128.272 201.51L122.297 187.293C121.275 186.102 122.173 188.411 120.944 185.592C120.815 188.219 121.61 192.142 121.965 194.587C122.901 201.047 122.076 202.291 124.431 202.874C129.663 202.874 126.944 202.922 128.272 201.51Z" fill="black"/>
<path fill-rule="evenodd" clip-rule="evenodd" d="M175.425 129.526L175.442 126.758C171.601 126.441 166 126.157 162.014 125.593C158.465 125.091 153.685 124.068 150.844 124.015C156.528 127.109 167.361 129.82 175.425 129.526Z" fill="#566566"/>
<path fill-rule="evenodd" clip-rule="evenodd" d="M135.562 11.1938C135.826 13.3341 135.487 11.8651 136.43 13.3548C137.806 15.5291 136.355 12.0854 137.605 14.9357C145.578 9.20512 147.812 9.79468 150.942 7.32964L151.851 6.45228C154.801 7.32964 152.643 6.64637 153.462 5.53418C151.062 5.86912 151.891 5.45677 151.851 6.45228C146.922 6.41066 140.33 9.65355 135.562 11.1935V11.1938Z" fill="#C2C8E2"/>
<path fill-rule="evenodd" clip-rule="evenodd" d="M238.967 192.838L235.312 201.662C236.644 203.01 233.269 202.873 238.363 202.873C240.73 201.46 239.177 204.169 240.131 199.836C240.447 198.397 240.452 197.605 240.702 195.969C241.15 193.032 241.654 190.065 241.955 187.605C241.022 189.222 240.548 190.906 238.967 192.838V192.838Z" fill="black"/>
<path fill-rule="evenodd" clip-rule="evenodd" d="M175.422 129.528L187.358 129.524L187.353 126.76H175.439L175.422 129.528Z" fill="#D7FDFF"/>
<path fill-rule="evenodd" clip-rule="evenodd" d="M176.2 134.398L186.519 134.375C187.418 132.57 186.771 134.528 187.353 131.656L175.445 131.429C175.882 133.999 175.215 132.542 176.2 134.398V134.398Z" fill="#D7FDFF"/>
<path fill-rule="evenodd" clip-rule="evenodd" d="M175.855 136.237C177.965 136.253 179.42 136.681 181.023 136.712C182.884 136.748 184.613 136.249 186.938 136.237C186.312 138.186 187.57 137.322 185.508 137.917C185.443 137.936 182.131 137.935 181.778 137.933C172.635 137.899 177.019 137.989 175.855 136.237V136.237ZM175.529 138.658L187.16 138.617C187.001 137.574 186.826 137.856 187.928 138.029L187.434 135.643H175.359L175.529 138.658Z" fill="#9AB5B6"/>
<path fill-rule="evenodd" clip-rule="evenodd" d="M175.858 136.236C177.022 137.988 172.638 137.898 181.781 137.933C182.134 137.934 185.446 137.935 185.511 137.917C187.573 137.321 186.315 138.185 186.942 136.237C184.617 136.248 182.887 136.747 181.026 136.711C179.423 136.68 177.968 136.252 175.858 136.237V136.236Z" fill="#D7FDFF"/>
<path d="M78.7377 215.78V244.487H73.8941C71.9822 244.487 70.4431 243.725 70.4431 242.796V215.78H56.8672V220.458H60.9496V242.787C60.9496 246.29 66.7498 249.142 73.8941 249.142H88.231V215.779H78.7377V215.78Z" fill="#06121E"/>
<path d="M112.86 215.796V221.96L103.253 215.796H93.7109V249.143H103.253V222.643L112.86 228.799V249.143H122.402V215.796H112.86Z" fill="#06121E"/>
<path d="M127.82 215.779V249.142H137.362V215.779H127.82Z" fill="#06121E"/>
<path d="M160.972 215.779V244.463H159.109C156.97 244.463 155.788 243.454 155.593 242.501L151.138 215.779H141.531L146.083 242.994C146.812 246.553 152.288 249.142 159.109 249.142H170.546V215.779H160.972Z" fill="#06121E"/>
<path d="M203.357 224.986V215.779H188.955C181.762 215.779 175.93 218.639 175.93 222.166V249.142H190.332C197.525 249.142 203.357 246.282 203.357 242.755V235.455H193.815V242.755C193.815 243.701 192.26 244.463 190.332 244.463H185.472V233.922C185.472 232.985 187.027 232.222 188.956 232.222H198.595V227.543H188.956C187.74 227.543 186.574 227.631 185.472 227.782V222.166C185.472 221.221 187.027 220.458 188.956 220.458H193.815V224.986H203.357V224.986Z" fill="#06121E"/>
<path d="M235.39 237.973C234.661 234.406 229.185 231.817 222.365 231.817H218.363V228.489H222.365C226.27 228.489 235.357 227.774 235.357 220.545L235.373 215.779H208.805V249.142H218.363V236.496H222.365C224.503 236.496 225.686 237.505 225.88 238.458L228.197 249.142H237.804L235.39 237.974V237.973ZM218.363 220.458H226.415C226.415 222.769 224.422 223.802 222.365 223.802H218.363V220.458Z" fill="#06121E"/>
<path d="M269.235 223.913V215.779H254.899C247.754 215.779 241.938 218.631 241.938 222.134V222.452C241.938 225.931 246.685 228.521 251.334 231.015C255.611 233.334 259.742 235.519 259.742 238.132V242.787C259.742 243.724 258.187 244.487 256.275 244.487H251.431V235.701H241.938V249.142H256.275C263.42 249.142 269.235 246.29 269.235 242.787V238.132C269.235 233.7 263.468 230.602 258.398 227.869C254.833 225.939 251.431 224.12 251.431 222.452V222.134C251.431 221.197 252.987 220.434 254.898 220.434H259.742V223.914H269.235L269.235 223.913Z" fill="#06121E"/>
<path d="M287.729 215.779C280.535 215.779 274.703 218.647 274.703 222.166V249.142H289.122C296.298 249.142 302.131 246.274 302.131 242.755V215.779H287.729ZM292.588 242.755C292.588 243.701 291.033 244.463 289.122 244.463H284.245V222.166C284.245 221.22 285.8 220.458 287.729 220.458H292.588V242.755Z" fill="#06121E"/>
<path d="M127.366 285.016C127.366 286.97 126.722 288.412 125.435 289.341C124.172 290.247 122.909 290.699 121.646 290.699H115.641C114.378 290.699 113.151 290.247 111.959 289.341C111.387 288.864 110.947 288.263 110.637 287.536C110.327 286.809 110.172 285.969 110.172 285.016V274.828C110.172 272.898 110.768 271.468 111.959 270.538C112.555 270.109 113.169 269.77 113.8 269.52C114.432 269.269 115.045 269.145 115.641 269.145H121.647C122.218 269.145 122.85 269.258 123.541 269.484C124.232 269.711 124.876 270.014 125.471 270.396C126.043 270.801 126.502 271.361 126.848 272.075C127.193 272.79 127.366 273.636 127.366 274.614V276.401C127.366 277.545 126.711 278.117 125.4 278.117C124.089 278.117 123.434 277.545 123.434 276.401V274.864C123.434 274.268 123.249 273.726 122.88 273.237C122.51 272.749 121.885 272.504 121.003 272.504H116.535C115.653 272.504 115.027 272.749 114.658 273.237C114.289 273.726 114.104 274.268 114.104 274.864V284.98C114.104 285.552 114.289 286.088 114.658 286.589C115.027 287.089 115.653 287.339 116.535 287.339H121.003C121.885 287.339 122.51 287.089 122.88 286.589C123.249 286.088 123.434 285.552 123.434 284.98V283.336C123.434 282.216 124.089 281.656 125.4 281.656C126.711 281.656 127.366 282.216 127.366 283.336V285.016H127.366Z" fill="#06121E"/>
<path d="M153.994 269.184C154.613 269.184 155.251 269.315 155.906 269.577C156.561 269.839 157.199 270.173 157.818 270.578H157.782C158.402 271.031 158.879 271.62 159.212 272.347C159.546 273.074 159.713 273.914 159.713 274.867V285.019C159.713 286.973 159.069 288.415 157.783 289.345C156.52 290.25 155.256 290.703 153.994 290.703H148.274C147.655 290.703 147.023 290.596 146.38 290.381C145.736 290.167 145.104 289.821 144.485 289.345C143.198 288.439 142.555 286.997 142.555 285.019V274.867C142.555 273.914 142.722 273.074 143.055 272.347C143.389 271.62 143.866 271.031 144.485 270.578H144.449C145.045 270.173 145.677 269.839 146.344 269.577C147.011 269.315 147.655 269.184 148.274 269.184H153.994ZM153.35 287.343C154.232 287.343 154.858 287.092 155.227 286.592C155.596 286.091 155.781 285.555 155.781 284.983V274.903C155.781 274.307 155.596 273.765 155.227 273.276C154.858 272.788 154.232 272.543 153.35 272.543H148.918C148.036 272.543 147.41 272.788 147.041 273.276C146.671 273.765 146.487 274.307 146.487 274.903V284.983C146.487 285.555 146.672 286.091 147.041 286.592C147.41 287.092 148.036 287.343 148.918 287.343H153.35Z" fill="#06121E"/>
<path d="M188.2 272.54H181.301C180.324 272.54 179.68 272.826 179.371 273.398C179.037 273.899 178.87 274.482 178.87 275.15V285.445C178.87 286.064 179.061 286.535 179.442 286.857C179.823 287.178 180.455 287.339 181.337 287.339H185.018C185.876 287.339 186.305 287.9 186.305 289.019C186.305 289.496 186.204 289.895 186.001 290.217C185.799 290.539 185.471 290.699 185.018 290.699H180.693C179.191 290.699 177.857 290.318 176.689 289.556C175.521 288.841 174.938 287.482 174.938 285.48V274.828C174.938 273.851 175.092 273.005 175.402 272.29C175.712 271.575 176.2 270.991 176.868 270.539C178.131 269.633 179.394 269.18 180.657 269.18H188.199V263.818C188.199 262.674 188.854 262.103 190.165 262.103C191.476 262.103 192.131 262.674 192.131 263.818V289.198C192.131 290.342 191.476 290.914 190.165 290.914C189.665 290.914 189.212 290.824 188.807 290.645C188.402 290.467 188.199 290.067 188.199 289.448V272.54L188.2 272.54Z" fill="#06121E"/>
<path d="M212.955 290.703C212.216 290.703 211.513 290.602 210.846 290.399C210.178 290.197 209.535 289.905 208.916 289.523V289.559C207.748 288.82 207.164 287.462 207.164 285.484V283.733C207.164 282.756 207.337 281.904 207.683 281.176C208.028 280.45 208.511 279.872 209.13 279.443H209.095C209.691 279.038 210.322 278.734 210.989 278.531C211.656 278.329 212.3 278.228 212.919 278.228H220.819V274.903C220.819 274.307 220.635 273.765 220.265 273.276C219.896 272.788 219.27 272.544 218.388 272.544H214.206C213.301 272.544 212.675 272.764 212.33 273.205C211.984 273.646 211.811 274.164 211.811 274.76V275.046C211.811 276.285 211.144 276.905 209.809 276.905C208.475 276.905 207.807 276.285 207.807 275.046V274.724C207.807 273.747 207.98 272.925 208.326 272.258C208.671 271.59 209.142 271.031 209.738 270.578H209.702C210.322 270.173 210.971 269.839 211.65 269.577C212.33 269.315 212.979 269.184 213.598 269.184H219.032C219.628 269.184 220.265 269.315 220.944 269.577C221.623 269.839 222.261 270.173 222.856 270.578H222.821C223.44 271.031 223.917 271.62 224.251 272.347C224.584 273.074 224.751 273.914 224.751 274.867V289.202C224.751 290.346 224.096 290.917 222.785 290.917C222.523 290.917 222.279 290.905 222.052 290.882C221.826 290.858 221.623 290.792 221.445 290.685C221.266 290.577 221.123 290.423 221.016 290.22C220.908 290.018 220.855 289.75 220.855 289.416L220.819 281.588H213.598C213.074 281.588 212.669 281.647 212.383 281.766C212.097 281.885 211.871 282.076 211.704 282.338C211.513 282.743 211.376 283.059 211.293 283.285C211.209 283.512 211.168 283.768 211.168 284.054V285.448C211.168 286.068 211.352 286.538 211.722 286.86C212.091 287.182 212.729 287.343 213.634 287.343H217.637C218.519 287.343 218.96 287.903 218.96 289.023C218.96 289.5 218.853 289.899 218.638 290.22C218.424 290.542 218.09 290.703 217.637 290.703H212.954H212.955Z" fill="#06121E"/>
<path d="M243.949 289.202C243.949 290.346 243.294 290.917 241.983 290.917C240.625 290.917 239.945 290.346 239.945 289.202V274.403C239.945 272.448 240.529 271.09 241.697 270.327C242.865 269.565 244.211 269.184 245.736 269.184H249.811C250.693 269.184 251.134 269.744 251.134 270.864C251.181 271.984 250.741 272.543 249.811 272.543H246.022C245.164 272.543 244.604 272.71 244.342 273.044C244.08 273.377 243.949 273.842 243.949 274.438V289.201L243.949 289.202Z" fill="#06121E"/>
</svg>
