<svg width="359" height="300" viewBox="0 0 359 300" fill="none" xmlns="http://www.w3.org/2000/svg">
<path fill-rule="evenodd" clip-rule="evenodd" d="M143.735 210.694C147.844 209.739 149.856 211.404 152.967 212.789C155.858 214.075 159.25 215.101 161.832 216.097C155.75 215.788 149.124 212.928 143.735 210.694ZM182.881 217.178L180.239 217.152C182.177 215.685 185.704 214.521 187.786 213.332C194.687 209.387 192.283 206.222 197.904 207.742C199.507 208.176 201.005 208.548 202.713 208.865C206.256 209.523 209.876 209.442 213.148 210.096C206.846 214.196 191.765 217.178 182.881 217.178V217.178ZM125.516 199.113C132.353 199.309 130.876 199.664 135.365 203.076C136.762 204.138 142.882 207.551 143.862 208.778C141.541 208.294 140.78 209.168 138.287 207.908C136.747 207.13 135.173 205.974 133.795 205.115C130.485 203.051 128.321 201.528 125.517 199.113H125.516ZM151.418 209.978C159.058 208.479 166.018 206.447 172.273 203.448C177.387 200.995 177.198 201.504 183.351 202.78C184.627 203.044 192.109 205.991 193.097 206.615C190.612 210.286 181.344 215.849 174.049 216.385C168.561 216.789 154.868 212.485 151.419 209.978L151.418 209.978ZM242.12 195.274C241.37 195.845 241.334 196.071 240.666 196.761C239.845 197.61 239.462 197.843 238.604 198.629C234.234 202.627 229.406 205.08 223.471 206.555C223.561 206.47 223.701 206.216 223.744 206.302C224.184 207.159 223.395 206.431 225.426 204.948L231.934 199.784C233.296 198.623 240.252 195.667 242.12 195.274H242.12ZM191.206 203.764L195.42 203.919C194.324 205.689 192.798 204.759 191.206 203.764ZM213.852 207.937C210.345 207.937 200.836 207.406 197.772 206.008L196.6 205.174C198.133 203.321 197.45 204.096 201.562 204.096C215.204 204.096 217.875 202.017 228.078 200.493C224.377 203.739 219.507 207.937 213.852 207.937ZM144.354 190.771C148.328 191.875 153.679 194.677 158.054 196.298C162.813 198.06 168.246 199.737 173.233 200.765C169.197 204.219 156.07 207.574 151.531 208.22C144.607 209.205 139.763 203.502 132.677 199.083L134.33 198.077C136.648 197.036 136.333 197.51 139.232 195.69C141.829 194.06 142.948 193.151 144.353 190.771H144.354ZM114.855 196.414C121.527 198.087 120.997 197.985 125.376 201.328C127.061 202.615 132.58 206.886 133.905 207.275C129.476 207.345 122.561 203.104 118.94 200.414C116.874 198.881 115.87 198.49 114.855 196.414ZM149.943 178.71C157.701 185.583 165.815 192.959 176.582 198.695C175.483 199.749 174.046 199.362 172.557 198.953C160.936 195.755 157.22 194.546 145.672 189.21L149.943 178.71ZM106.5 184.231C108.571 185.188 107.388 184.568 109.506 187.051C113.029 191.18 115.19 192.505 117.864 195.422C110.535 193.633 109.129 190.652 106.5 184.231ZM196.923 202.084C192.105 202.466 183.238 201.832 180.515 198.935C184.799 196.065 188.965 193.717 192.922 190.503C194.857 188.932 196.969 187.353 198.946 185.793C201.038 184.142 202.387 182.225 204.541 180.75C204.124 188.617 200.602 196.594 196.923 202.084H196.923ZM97.0336 181.828L103.361 181.342C104.138 184.666 105.978 187.022 107.051 189.9C103.002 187.935 99.0208 183.319 97.0339 181.828L97.0336 181.828ZM106.529 180.688L111.582 178.84C113.331 180.397 113.981 181.822 115.227 183.393C115.967 184.325 116.578 184.792 117.31 185.66L127.88 197.222C120.504 197.146 119.482 194.257 115.715 190.59C113.301 188.241 108.342 183.615 106.53 180.688H106.529ZM113.873 178.287L120.357 175.524C127.474 180.261 128.392 181.689 137.296 186.79C139.294 187.934 141.811 188.777 143.399 190.23C141.719 192.581 139.153 194.505 135.61 195.985C130.458 198.138 129.352 195.868 126.635 193.366L116.879 182.737C115.59 181.119 115.038 179.937 113.874 178.287L113.873 178.287ZM237.141 195.032L245.285 184.971C248.097 181.204 250.581 176.959 252.538 173.548C253.655 174.699 252.404 176.499 250.921 180.881C249.904 183.883 248.05 187.168 246.333 189.848C244.861 192.143 239.917 194.572 237.141 195.032ZM150.314 170.967C165.76 172.249 176.314 173.261 192.052 171.886C196.029 171.538 201.722 170.502 205.372 170.577C205.372 179.177 205.148 178.989 194.618 187.344C192.205 189.258 179.993 198.412 178.246 198.053C175.758 197.542 163.688 188.76 161.668 187.006L154.099 180.479C149.349 176.299 150.309 178.203 150.314 170.967ZM93.1316 166.465C94.6238 168.115 96.4425 170.905 97.9045 172.933C99.3781 174.976 101.796 177.525 102.565 179.548C100.665 180.066 98.7048 180.24 96.6236 179.89C94.3869 179.513 93.8457 178.6 92.5551 177.214C89.9614 174.426 91.5375 169.928 93.1316 166.465V166.465ZM144.474 188.76C137.372 185.843 127.341 178.732 122.136 174.746C125.124 172.799 128.413 171.752 131.326 170.172C133.296 169.104 133.854 168.096 136.385 168.427C141.625 169.113 142.066 170.21 145.342 174.143C148.582 178.031 150.637 177.404 144.474 188.76ZM198.797 202.114C201.566 196.599 203.549 193.109 205.04 186.007C207.267 175.393 204.05 181.289 213.348 171.082C214.662 169.64 214.499 168.915 216.359 168.255C222.509 166.073 223.346 168.374 229.652 170.546C235.817 172.668 242.997 174.202 250.2 173.606C248.491 179.359 236.675 193.302 233.217 196.242C228.63 200.141 206.542 203.294 198.797 202.114ZM98.6931 157.134C98.797 163.029 99.9054 168.589 100.691 173.456C94.2176 165.815 93.5946 165.02 95.9237 161.049C96.845 159.479 97.7931 158.038 98.6934 157.134H98.6931ZM143.982 170.037L148.895 170.689L148.937 174.744C147.065 174.343 147.285 174.246 146.073 172.948C145.023 171.823 144.617 171.413 143.982 170.037H143.982ZM206.388 175.946L206.649 170.188L212.79 169.038C212.097 170.366 210.888 171.318 209.899 172.484C208.763 173.822 207.894 175.111 206.388 175.946H206.388ZM249.219 188.76C250.051 186.508 251.423 183.909 252.436 181.4C253.541 178.665 254.04 176.107 255.042 173.486C257.323 172.216 261.507 171.543 264.38 170.008C267.377 168.407 269.638 166.625 271.708 164.965C270.1 168.639 264.645 175.954 262.006 178.264C258.771 181.095 252.68 187.36 249.219 188.76ZM139.867 165.175L147.677 160.961C149.091 162.76 148.954 166.755 148.958 169.135C139.219 167.948 142.073 167.782 139.867 165.176V165.175ZM205.803 157.851L215.051 163.667C215.092 163.694 215.667 164.084 215.667 164.085C216.243 164.514 216.194 164.487 216.554 164.843C214.716 167.657 212.697 167.993 206.722 168.446L205.803 157.851ZM100.567 159.324C101.071 160.938 104.242 166.543 105.164 168.251L110.752 177.327L109.427 178.079C103.788 180.455 103.816 178.251 102.496 173.249C101.645 170.023 100.294 162.469 100.567 159.324V159.324ZM149.356 159.571C156.539 156.407 180.996 137.468 183.373 136.502C184.577 137.675 185.387 138.428 186.441 139.759L196.667 149.949C206.32 158.318 204.43 154.869 205.247 168.834C178.18 171.599 177.528 171.492 150.648 169.407L149.356 159.571ZM251.337 172.046C241.42 172.543 231.055 170.794 223.778 166.704C226.874 165.101 235.938 162.901 240.167 161.257C245.464 159.199 250.773 156.086 255.146 154.401C256.187 164.721 253.264 166.909 251.338 172.046H251.337ZM102.902 159.742C105.223 163.319 116.343 171.926 118.821 174.476L112.446 177.242C111.061 173.596 106.001 168.062 102.902 159.742ZM103.61 158.242C105.122 157.131 104.45 158.134 110.53 160.611C118.524 163.869 124.18 165.699 132.86 167.666L128.725 170.067C118.463 175.298 121.117 173.919 116.887 170.721L107.044 161.608C106.243 160.734 103.669 158.804 103.61 158.242L103.61 158.242ZM93.255 162.713C91.9885 161.089 89.9233 157.787 89.3856 155.841L97.897 155.313C96.7705 157.399 94.7175 160.896 93.2547 162.714L93.255 162.713ZM102.257 154.763L126.484 150.012C127.385 151.988 130.137 155.364 131.728 157.659C133.6 160.361 135.537 162.97 137.394 165.324C135.09 167.576 131.933 166.141 128.513 165.131C122.78 163.439 105.325 157.762 102.258 154.763H102.257ZM78.2912 154.672L86.8958 156.024C88.1954 158.297 90.3575 161.161 91.4822 163.422C92.5697 165.606 91.6542 165.965 90.8414 168.099C90.2891 169.55 89.8829 171.304 89.5354 173.006C87.0067 171.34 79.6496 158.687 78.2915 154.673L78.2912 154.672ZM257.023 158.24L257.019 154.269C257.23 152.866 257.29 153.133 259.239 152.159L257.874 156.94C257.236 158.333 257.358 157.831 257.023 158.24ZM219.077 164.363L226.626 153.79C233.125 144.312 242.051 128.586 245.686 117.793C251.184 119.274 251.101 122.097 252.924 131.911C254.02 137.813 254.902 145.46 254.902 151.4C254.902 154.81 223.259 166.594 220.316 165.227C219.663 164.923 219.188 164.448 219.077 164.364V164.363ZM128.036 149.661C130.199 148.66 140.968 145.702 143.673 145.218C145.214 149.463 147.035 154.249 147.808 159.082C145.622 160.84 141.81 163.141 139.128 164.378C136.723 162.238 130.018 152.759 128.036 149.661ZM79.8868 141.169L85.9404 154.311C83.8205 154.392 81.941 154.117 79.9703 153.485C75.4564 152.039 74.6736 148.183 76.5205 144.99C76.9984 144.163 77.2888 143.717 77.8658 142.976C78.0969 142.68 78.2537 142.455 78.5575 142.166C79.5568 141.215 78.6469 141.859 79.8865 141.168L79.8868 141.169ZM101.245 153.53C102.533 150.865 114.47 135.763 117.005 134.567C118.612 136.772 119.771 139.285 121.145 141.599C122.521 143.915 124.095 146.21 125.393 148.519L101.245 153.53V153.53ZM83.6375 144.857C86.9816 148.032 92.4771 150.887 96.7595 154.132L88.9878 154.589C86.6857 153.172 84.4258 147.329 83.6378 144.858L83.6375 144.857ZM81.0566 139.098C82.4327 137.772 83.4565 136.534 85.7248 135.737C86.601 138.29 88.6717 141.138 90.1855 143.499C91.6321 145.755 94.3596 148.918 95.3112 150.949C92.8447 150.064 86.4828 145.181 84.2081 143.113C80.1766 139.445 82.353 141.436 81.0566 139.098ZM255.426 171.235C256.529 163.925 258.909 160.483 260.887 153.639C261.888 150.178 261.193 150.749 263.989 149.004C268.476 146.204 275 140.635 278.231 136.498L280.431 134.477C280.162 141.055 278.085 155.096 274.39 159.155C270.019 163.956 264.536 169.689 255.426 171.235H255.426ZM184.509 135.497C185.38 134.495 186.064 134.32 187.136 133.464L196.062 126.523C197.889 132.472 204.386 148.317 203.774 154.462L193.544 145.791L184.509 135.497ZM149.114 158.451C147.882 153.267 146.171 149.222 144.935 144.619C152.779 143.175 178.415 132.838 180.697 132.857L182.528 135.381C181.574 136.003 180.396 137.216 179.113 138.115L166.332 147.248C162.478 149.924 152.823 156.635 149.114 158.451ZM90.9503 131.131C91.8326 132.363 92.0013 134.134 92.3444 135.634L96.1737 148.909L91.213 142.028C89.6396 139.58 88.2361 137.033 86.7407 134.475C88.2091 133.259 89.2625 132.339 90.9503 131.131ZM71.7182 131.626L78.2904 139.876L74.389 145.037C73.209 140.722 71.8378 136.376 71.7182 131.626ZM281.204 143.985C281.415 141.266 281.852 138.794 282.012 136.05C282.239 132.172 281.645 132.011 283.476 129.073C283.865 131.685 282.986 137.63 282.33 140.491C282.213 141.001 282.087 141.569 281.947 142.07C281.901 142.231 281.777 142.702 281.724 142.853C281.403 143.759 281.355 143.701 281.204 143.985ZM118.298 132.496C120.979 130.743 127.294 124.07 129.267 121.663C132.362 123.691 141.482 138.722 143.151 144.257L127.378 148.566C125.716 146.708 118.542 134.858 118.298 132.496V132.496ZM100.17 151.637C100.177 145.239 101.09 138.666 102.183 132.612C103.619 124.649 102.981 121.57 109.631 119.293C110.147 119.906 115.875 132.263 116.083 133.154C113.467 136.237 110.711 139.049 108.124 142.26C106.727 143.995 105.878 144.995 104.392 146.762C103.032 148.379 101.731 150.544 100.17 151.637H100.17ZM262.461 147.708C263.829 138.683 265.607 131.898 266.085 122.083C277.564 118.322 271.529 120.444 278.804 115.421C279.555 118.704 279.988 122.864 280.181 126.422C280.472 131.793 279.292 132.725 276.396 135.667C269.564 142.61 274.2 138.522 266.603 144.826C265.292 145.913 264.215 146.799 262.461 147.708ZM183.342 134.534L181.713 131.866L191.267 128.305L183.341 134.534H183.342ZM72.2691 119.158C72.6901 119.893 77.2498 134.622 77.5541 136.005C74.7868 132.53 71.3163 128.8 71.4714 124.527C71.5357 122.745 71.6239 120.462 72.2691 119.158ZM98.5066 148.636C98.121 148.22 98.1813 148.348 97.7945 147.66L95.1636 139.62C94.2961 136.485 93.0664 132.477 92.8877 129.315L102.163 123.547C101.746 127.419 100.494 131.712 99.8854 135.664C99.2425 139.829 99.173 144.883 98.5063 148.636H98.5066ZM200.396 122.444C200.302 122.375 200.641 122.162 200.684 122.246L219.152 106.18C221.056 104.511 223.267 101.635 225.833 100.748C227.045 103.06 230.279 106.461 232.318 108.008L201.667 122.63C201.597 122.667 201.438 122.76 201.382 122.79C201.326 122.821 201.192 122.894 201.101 122.951C200.976 122.861 200.709 122.613 200.687 122.741C200.668 122.857 200.509 122.525 200.396 122.443V122.444ZM251.984 120.523C256.535 121.349 258.997 122.389 264.273 122.321C264.477 128.732 262.522 139.52 260.96 146.046C260.082 149.716 260.326 150.269 256.744 151.369C256.712 136.201 253.178 130.142 251.985 120.523H251.984ZM130.619 120.013L158.698 95.8242C161.997 102.547 164.556 108.285 168.097 114.464C171.517 120.428 178.012 128.92 179.531 131.774C172.228 133.423 152.979 142.154 144.535 143.508C142.763 141.266 139.066 131.581 132.551 123.269C131.012 121.306 131.572 122.351 130.619 120.013ZM111.167 118.272C114.026 116.834 118.389 113.877 121.429 113.035L126.724 118.354C126.961 118.583 127.566 119.227 127.685 119.379C128.584 120.53 127.904 119.465 128.526 120.671C128.256 121.133 119.462 130.82 117.497 131.532C115.57 129.091 112.119 121.696 111.167 118.273L111.167 118.272ZM217.352 163.705C202.836 154.678 206.103 157.871 203.945 148.129C201.736 138.154 198.007 130.088 197.014 125.714C207.318 122.7 228.503 110.592 233.516 109.194C236.297 111.328 240.765 115.163 244.483 116.682C241.467 128.91 223.993 156.841 217.353 163.705L217.352 163.705ZM105.079 120.3L106.963 113.065L109.19 117.748L105.079 120.3H105.079ZM247.676 112.898L248.882 115.28C249.193 116.246 249.422 116.936 249.496 118.033L246.626 116.774L247.677 112.899L247.676 112.898ZM282.554 110.11C283.046 115.326 285.395 123.064 282.339 127.303C281.756 124.476 281.733 121.151 281.281 118.238C280.541 113.473 279.645 113.501 282.554 110.11ZM75.0629 109.75C76.6922 113.651 77.5702 118.316 79.2332 122.504C80.8148 126.489 82.9987 130.445 84.4514 134.114C83.3558 135.428 81.9558 136.913 80.5645 137.805C79.1101 136.12 76.3736 127.029 75.5949 124.157C73.9667 118.152 71.907 114.987 75.0629 109.749V109.75ZM69.35 121.809C67.9594 116.237 67.2831 111.92 68.0231 106.002C68.1148 105.265 68.2288 104.21 68.411 103.504L69.44 101.378C70.0802 104.015 70.4235 108.788 70.9607 111.936C71.417 114.613 69.8223 120.871 69.3497 121.809H69.35ZM110.123 104.694C114.263 106.588 117.449 109.961 120.076 111.37C118.945 113.035 117.464 113.264 115.478 114.382C113.893 115.273 112.39 116.292 110.615 116.815C108.13 112.786 107.175 108.501 110.123 104.694V104.694ZM92.5478 128.293C91.4196 120.764 89.238 106.689 90.5813 99.1849C104.933 98.4301 103.833 102.928 104.99 106.477C106.636 111.525 105.793 112.834 103.308 120.263C102.657 122.211 103.089 121.571 101.722 122.558C99.601 124.09 94.6355 127.367 92.5481 128.293L92.5478 128.293ZM262.458 91.953C263.699 97.4564 265.77 115.653 264.305 120.913C261.214 121.192 254.111 120.604 252.039 118.909C251.289 118.296 248.371 111.33 249.329 108.306C250.117 105.822 251.531 99.0991 253.298 97.7436C254.545 96.7862 261.361 92.453 262.458 91.9527V91.953ZM244.331 103.403C244.97 104.376 246.539 108.248 246.726 109.292C247.064 111.173 246.334 112.901 245.437 114.581C244.978 115.44 245.137 115.143 244.823 115.553C240.782 114.052 238.065 110.648 234.899 108.847C236.04 107.202 243.254 103.723 244.331 103.403H244.331ZM88.7384 99.727C88.7384 104.927 88.7084 110.119 89.1824 115.293C89.5904 119.752 90.7803 125.105 90.9645 129.313C89.1711 130.772 87.8412 131.817 86.1569 132.974C83.5493 128.9 76.879 112.247 76.7571 108.082C76.6622 104.85 84.5212 99.471 88.7387 99.7267L88.7384 99.727ZM285.35 98.2267C286.972 102.725 288.286 112.45 286.304 117.539C285.713 119.055 285.918 118.389 285.444 118.988C284.924 115.639 284.62 111.93 284.008 108.298C283.557 105.619 284.83 101.329 285.35 98.2264V98.2267ZM105.454 102.486L108.405 103.667L107.256 107.424C107.013 107.072 106.922 107.096 106.594 106.364C106.549 106.267 106.259 105.381 106.217 105.256C105.947 104.442 105.648 103.498 105.454 102.486H105.454ZM73.0064 93.0053C73.3021 96.2225 73.4555 99.1218 73.9568 102.263C74.668 106.72 75.5262 106.652 72.7626 110.108C72.1128 107.208 71.7429 104.326 71.488 101.387C71.1263 97.2076 70.5397 95.5573 73.0062 93.005L73.0064 93.0053ZM247.937 107.05L245.699 102.469L249.823 99.865L247.937 107.05H247.937ZM237.328 88.5638C239.122 90.1154 243.239 99.2233 243.749 101.946L233.819 107.482C233.291 106.764 227.503 100.887 226.452 100.323C227.116 98.6739 235.608 90.0106 237.328 88.5641V88.5638ZM129.787 119.305C129.049 118.884 129.572 119.245 128.922 118.653C128.372 118.152 128.431 118.14 127.953 117.647C126.176 115.817 123.695 114.068 122.72 111.73C125.66 110.837 146.844 99.5853 154.611 97.2047L136.059 113.815C134.216 115.437 131.664 118.113 129.787 119.306V119.305ZM98.2013 68.9089C98.2013 74.3284 98.9812 79.9636 99.7547 85.1454C100.497 90.1177 102.186 95.2442 102.869 99.9351C98.1533 98.9178 95.9249 98.1047 90.4582 98.1047C91.4773 87.4035 91.6201 84.4374 93.9766 74.1518C94.8156 70.4887 94.8584 70.0982 98.2016 68.9089H98.2013ZM159.715 95.2238C161.52 93.6987 171.668 89.8055 174.706 89.2246L185.895 106.196C188.646 111.008 193.884 119.913 195.414 125.532L180.954 131.135C172.305 121.702 165.022 107.053 159.715 95.2238ZM121.921 111.113C119.263 110.063 114.792 105.246 110.555 103.566C113.148 92.5289 126.118 72.1253 133.455 61.8327L137.653 56.6957C140.774 58.1553 149.239 62.6012 149.944 65.9267C151.548 73.4851 151.33 74.8263 154.127 83.4588C155.314 87.1248 157.164 91.0361 157.99 94.5639C151.507 96.0459 129.588 107.753 121.921 111.114L121.921 111.113ZM268.912 87.4388C271.813 91.2325 278.082 107.862 278.375 113.677C275.069 116.434 272.512 119.778 266.333 120.7C266.333 113.993 266.16 108.031 265.49 101.45C264.593 92.6363 262.565 91.6603 265.588 89.586C266.817 88.7416 267.503 88.1046 268.913 87.4391L268.912 87.4388ZM171.633 85.7417L173.298 87.9652L163.439 92.0936C164.68 90.6729 170.121 86.4823 171.633 85.7417H171.633ZM252.722 96.6046C253.855 87.7039 256.239 80.6591 256.253 70.7395C258.106 73.3987 260.174 81.9904 261.155 86.019C262.466 91.3995 262.822 89.9812 259.258 92.5222C257.217 93.9781 254.984 95.5227 252.722 96.6046H252.722ZM210.41 76.9061C212.429 79.7052 214.826 85.6942 216.822 88.9624C218.709 92.0522 223.515 97.8815 224.358 100.323C219.408 104.186 204.919 117.726 196.737 124.422C195.547 123.447 184.433 97.9636 175.537 89.1609L177.393 87.9271C182.902 85.4879 207.125 77.427 210.41 76.9064V76.9061ZM270.54 86.1019C271.822 84.9769 272.925 83.5891 274.32 82.6082L274.777 83.1931C276.095 85.3564 278.676 93.7435 279.329 96.0805C280.716 101.046 283.297 106.851 279.758 110.619C278.476 106.122 277.433 102.008 275.686 97.7325C274.199 94.0951 271.541 89.2756 270.54 86.1022V86.1019ZM277.329 84.1354C279.345 85.8816 280.921 88.8353 282.497 91.5739C284.063 94.2944 283.727 98.554 282.861 101.824L277.329 84.1354ZM276.592 80.3405L280.325 75.2192C281.943 78.025 282.975 84.9964 283.228 88.6508C281.478 86.9033 279.217 82.9487 276.591 80.3405H276.592ZM71.47 91.2639C71.257 87.403 72.3988 79.6944 73.6207 76.5316L72.7527 88.5175C72.5385 89.9995 72.0994 90.0767 71.47 91.2639ZM212.179 76.4999L219.668 73.9984C222.291 73.2465 225.006 72.6543 227.617 71.9079C229.323 73.2011 235.614 84.2331 236.896 87.0619C235.923 89.1443 227.714 96.9975 225.65 98.5549C221.306 94.329 214.7 83.8545 212.179 76.4996V76.4999ZM245.315 101.061L238.513 86.853C240.345 85.9404 248.519 76.1373 250.626 73.5215C252.13 71.6547 252.81 70.0772 254.746 68.6697C254.862 74.7556 253.855 81.918 252.8 87.6436C251.163 96.5357 251.979 98.6259 245.315 101.061V101.061ZM174.339 87.662L172.427 84.6158C174.814 83.5854 178.225 80.2983 180.664 78.6669C183.491 76.7763 186.167 74.7204 189.01 72.8723L205.771 61.8251L210.004 75.738C205.164 76.6608 197.062 79.6089 192.249 81.3261C186.939 83.2202 179.484 86.4275 174.339 87.6623L174.339 87.662ZM258.927 66.4168C261.03 65.5883 264.474 65.8188 267.066 65.8188C267.921 68.9013 270.393 72.3622 271.308 75.179L259.798 67.1294C259.04 66.5748 259.285 66.7354 258.927 66.4171V66.4168ZM88.8606 98.0753C83.5819 99.7832 83.0831 99.3586 78.7539 102.532C76.3972 104.259 75.3315 108.132 74.7236 93.2998C74.558 89.2485 75.0041 88.615 78.5363 84.5433C81.9549 80.6032 87.6608 74.9285 92.4858 72.4203C92.0028 76.4 90.7754 80.5517 90.1325 84.8268C89.4627 89.2851 89.1274 93.5593 88.8603 98.075L88.8606 98.0753ZM258.772 71.3096C260.284 73.5279 261.303 74.2676 263.755 78.1638C265.226 80.499 266.728 83.3587 268.236 85.6832C266.961 86.864 265.766 88.2146 263.996 89.1015C263.779 88.787 263.904 89.2365 263.457 88.0621L261.4 79.9979C260.585 77.2079 259.679 74.0107 258.772 71.3096ZM259.633 69.2691C262.541 70.4145 272.946 78.2482 273.981 80.82C273.117 82.44 271.444 83.5958 269.895 84.5413C268.633 83.3549 264.492 75.8771 262.424 73.2331C261.097 71.5351 260.403 70.9878 259.633 69.2691H259.633ZM151.141 65.6657C152.091 66.7482 166.647 77.5658 170.482 84.6612L158.976 93.6033C156.839 88.1759 150.962 71.5832 151.141 65.6657ZM237.728 85.7414C236.139 81.2673 231.618 75.6047 229.491 71.1595C236.774 69.8462 246.612 66.7564 253.949 66.6263C252.441 69.4536 242.076 81.7911 239.317 84.555C238.299 85.5752 238.952 85.0916 237.728 85.7414ZM95.6531 67.9765L98.0413 60.8238L98.0657 66.6563C96.6896 67.666 97.4299 67.4175 95.6531 67.9762V67.9765ZM269.035 65.9378C273.732 65.9934 277.513 66.5026 278.898 70.1363C279.755 72.3837 279.723 72.9322 278.661 74.973C278.175 75.9068 277.862 76.3835 277.374 77.0586L275.06 79.1692C273.914 74.6971 270.598 70.0947 269.035 65.9375V65.9378ZM257.115 64.9373C258.339 62.4589 260.572 60.1868 261.294 57.4756L262.838 58.9157C262.929 59.0382 263.629 60.2881 263.892 60.7481C264.597 61.982 265.232 63.0493 265.78 64.3175L257.115 64.9373ZM207.294 61.1346L215.77 55.8518C217.55 57.2297 225.751 68.0705 226.802 70.7375L211.26 75.2395C210.203 70.6744 207.733 66.4162 207.294 61.1346ZM222.363 52.4922C224.055 51.1359 228.386 49.1306 230.54 48.1511C236.28 45.542 234.284 46.8049 241.548 52.7922C244.115 54.9087 249.93 60.3096 251.273 62.5154C247.298 61.1305 242.213 58.7353 237.244 57.0146C234.687 56.1282 223.323 53.1106 222.363 52.4919V52.4922ZM138.483 55.3731C139.822 52.3252 144.29 52.2839 148.253 51.7423L149.226 62.4935L138.483 55.3734V55.3731ZM149.699 51.4443C180.583 49.3087 171.794 48.2745 204.663 50.9339L205.588 60.7772C203.511 61.4797 199.072 64.7037 196.816 66.1109C188.925 71.032 181.53 76.6768 174.097 82.3093C173.747 82.5742 173.245 82.9498 172.95 83.1271C171.65 83.904 172.928 83.2958 171.573 83.8054C168.054 80.7062 161.702 73.0987 154.653 67.0878C150.358 63.4244 149.699 65.1399 149.699 51.4443H149.699ZM236.158 45.6212L242.197 43.04C245.431 47.462 249.836 54.721 252.013 60.1746C250.551 59.3263 243.148 51.1749 240.412 49.1286C238.811 47.9308 237.595 46.8067 236.158 45.6212ZM109.2 102.486C105.009 100.957 104.926 101.415 103.876 96.9911C101.759 88.0595 99.7989 78.0678 99.7989 68.8172C99.7989 66.9083 104.254 65.396 107.111 63.968C109.744 62.6515 113.126 61.2629 116.047 60.2066C120.412 58.6279 131.289 53.6894 135.715 55.4636C135.395 57.2806 133.366 59.521 132.164 61.0633C124.396 71.0378 112.629 91.2939 109.2 102.486H109.2ZM265.441 47.0933C268.45 49.653 275.504 61.4547 276.716 65.606L267.926 64.2724C266.776 61.7721 264.46 59.076 263.415 56.845C262.2 54.2513 265.009 50.3243 265.441 47.093V47.0933ZM217.755 54.8935C220.622 52.6767 222.612 54.166 226.325 55.2008C235.172 57.667 240.463 59.532 248.698 63.1343C249.481 63.4768 249.976 63.6645 250.713 64.0297L252.84 65.5461L228.586 70.1916L217.755 54.8935H217.755ZM83.6081 54.7454C85.2618 52.647 86.4086 50.3685 88.294 47.9925C92.2557 42.9999 99.4084 34.2769 105.698 31.639C105.113 33.701 103.444 36.8045 102.448 39.2375L99.8656 46.871C99.8365 46.7988 99.732 47.0872 99.647 47.1812C98.3713 48.2419 92.7099 48.7317 87.1719 52.6491L83.6081 54.7457V54.7454ZM206.109 51.1722C207.685 51.3879 209.853 51.6192 211.432 51.9748C214.493 52.6639 213.353 53.211 215.081 54.6837C205.63 61.3467 206.759 59.5574 206.368 56.4847C206.162 54.8746 205.965 52.9505 206.109 51.1722H206.109ZM99.8603 65.7579C98.4437 56.7868 102.002 52.4535 103.611 48.1712C116.73 47.7044 120.797 49.5168 131.323 53.4545C130.259 54.1759 117.512 58.0485 114.84 59.0228C109.17 61.0898 104.738 63.418 99.86 65.7579H99.8603ZM74.8191 86.1913C74.9919 79.6752 77.1939 66.3397 80.4912 61.4756C83.9474 56.3762 90.9005 50.693 99.551 48.9839C98.8558 56.1751 96.311 59.4058 94.1632 66.6801C92.3578 72.7937 90.0968 70.7166 82.3309 78.1536C79.6357 80.735 77.5079 83.3895 74.8191 86.1915V86.1913ZM142.158 51.2694C143.158 49.3218 146.724 45.3165 148.529 44.2424L148.433 50.1517L142.158 51.2694H142.158ZM206.07 45.2312C208.555 46.4287 209.238 48.8614 211.179 50.3624L205.987 49.8092L206.07 45.2312H206.07ZM254.391 46.9781L259.897 54.6034C261.129 56.8173 257.951 61.794 256.344 62.9635L254.391 46.9781H254.391ZM149.574 49.9725C149.574 43.3528 149.075 42.9775 152.986 39.6202C158.022 35.298 162.815 30.83 168.594 27.0182C177.17 21.3615 175.091 20.74 185.867 27.9756C193.959 33.4083 194.799 35.0769 201.298 40.2773C205.823 43.8976 204.769 42.809 204.601 49.5819C189.278 48.1988 177.883 47.3177 162.249 48.6979C158.453 49.0328 153.141 50.0019 149.574 49.9728V49.9725ZM244.179 42.3818L250.102 40.8951C253.062 45.3028 254.417 54.6671 254.594 60.8028C253.401 59.2672 250.886 53.8334 249.668 51.6149C247.885 48.3708 245.879 45.7088 244.179 42.3818ZM210.658 31.637C215.247 34.6997 228.101 40.4964 232.932 45.6805C229.64 47.1693 226.375 48.7933 223.413 50.315C221.186 51.4592 221.008 52.3162 217.991 51.825C212.727 50.9683 214.206 51.1114 209.469 46.2171C208.376 45.0886 206.628 43.9276 206.651 42.0873C206.69 39.1275 209.164 33.1231 210.658 31.637H210.658ZM252.506 40.3716C258.794 39.7899 260.095 39.674 262.827 43.5755C264.692 46.2404 263.458 51.0462 261.66 53.7831C259.792 50.9482 253.054 42.9251 252.506 40.3716ZM237.508 24.7648C241.232 26.8754 244.857 25.8932 249.032 37.0682C247.554 35.9545 247.38 35.1339 246.201 33.8454C242.023 29.284 236.985 25.0971 236.933 24.9751L237.508 24.7648H237.508ZM257.658 38.563L251.767 38.9887L247.742 31.0945L253.076 34.3392C254.926 35.9763 256.428 36.4952 257.658 38.5627V38.563ZM211.577 30.0181C213.653 26.9909 221.461 21.5492 224.909 23.8894C225.71 24.4333 227.773 26.2477 228.624 27.0244C231.611 29.7469 239.311 38.5621 241.228 41.9296C236.61 44.4383 235.171 45.0296 233.303 43.6331L218.842 34.1686C216.711 32.9238 212.936 31.2627 211.577 30.0181ZM102.008 46.9729C102.132 43.4733 105.313 36.0968 106.994 33.1097C109.376 28.8786 111.89 26.9647 117.896 25.2167C115.76 28.0434 111.769 32.0193 109.214 35.7491C107.022 38.948 104.363 44.1356 102.008 46.9729ZM114.97 22.6614C118.632 19.1395 126.202 14.6302 131.63 13.7819C130.155 14.7035 129.004 15.7997 127.402 17.0146C122.63 20.632 123.572 20.8171 118.53 22.7737C115.014 24.1376 114.423 25.5231 113.073 24.6166L114.97 22.6614ZM239.935 24.0169C234.262 21.0918 236.252 24.383 230.173 19.2736L222.471 13.8031C222.023 13.4362 221.988 13.38 221.655 13.034C225.526 13.6885 229.387 15.5672 232.254 17.2454C234.03 18.2842 234.982 18.893 236.612 20.1839L239.935 24.0169H239.935ZM242.948 41.3595C241.533 39.5312 240.709 38.0098 239.282 36.2909C238.071 34.833 236.887 33.5014 235.402 31.9323L227.063 22.9966C231.684 23.1133 232.239 23.276 234.803 25.3296C237.868 27.7827 246.52 36.9552 248.516 39.784L242.948 41.3595H242.948ZM150.313 39.7093C150.859 34.4524 154.98 19.5245 158.791 18.0433C160.38 17.7683 170.494 18.0287 174.245 21.2844C172.353 22.8954 169.891 24.1871 167.682 25.6599C161.752 29.6125 151.671 39.0775 150.313 39.7095V39.7093ZM181.866 23.2353C180.4 22.3835 179.21 21.9409 178.273 20.6858C181.105 19.1299 206.17 29.2732 209.274 31.0366C208.502 32.6365 207.63 34.2027 206.892 36.1003L205.002 41.5088L181.866 23.2356V23.2353ZM183.104 18.6683C187.79 15.7115 198.969 12.8557 204.056 12.1354C209.505 11.3637 218.182 18.3186 222.084 21.7043C216.605 23.6659 212.89 25.6476 210.715 29.6265C206.501 28.4564 201.244 25.6863 196.762 24.0457C192.886 22.6277 184.876 20.9268 182.128 19.3641L183.104 18.6683ZM104.958 46.4933C105.528 42.3544 116.454 29.0986 120.763 24.9568C126.39 19.5474 145.984 17.4016 156.183 18.0366C153.549 23.7652 151.451 26.7351 149.903 34.2379C148.779 39.6889 149.685 41.1264 147.284 43.1742C142.786 47.011 140.682 53.3748 133.78 52.8894C130.291 52.6438 124.019 46.493 104.958 46.493L104.958 46.4933ZM163.763 16.4454L159.654 16.2429C159.881 14.7006 160.144 15.0067 161.71 15.4799C162.368 15.6789 163.254 16.0904 163.763 16.4457V16.4454ZM126.931 19.6941C130.294 17.1805 134.722 12.2818 140.594 12.2818C145.024 12.2818 156.136 12.4628 158.638 14.9229C157.216 16.3441 157.729 16.1439 154.891 16.1602C137.891 16.2574 139.665 18.0447 126.931 19.6944V19.6941ZM229.489 21.1645C226.444 21.214 225.277 21.8204 223.303 20.2098L211.21 11.5942C216.69 11.4897 218.234 13.2715 221.73 15.5145C223.922 16.9194 227.938 19.397 229.49 21.1645H229.489ZM161.805 13.6923C164.372 9.80599 173.705 4.23513 181.083 3.74159C183.962 3.54866 190.292 5.15817 193.081 6.03553C195.248 6.71734 201.941 8.74618 203.649 10.3612C195.886 11.6809 189.06 14.0796 182.466 17.0524C175.016 20.4117 170.253 16.7489 161.805 13.6923ZM211.023 9.70152C206.304 10.0062 205.382 8.77935 201.674 7.24376C198.83 6.06609 195.956 4.96146 193.202 4.1778C197.803 4.1391 208.024 7.56269 211.023 9.70152ZM142.079 10.2413C148.484 5.56702 165.078 2.7813 174.615 3.15901C168.975 6.62946 168.099 4.94312 159.775 13.0017C157.266 12.6394 154.284 11.6454 151.394 11.1798C148.264 10.6752 145.125 10.734 142.078 10.241L142.079 10.2413ZM65.8086 113.469C65.8086 128.218 70.6814 144.824 76.3669 156.519C79.4582 162.877 82.8689 168.539 86.4974 173.524C105.194 199.209 138.343 219.217 175.506 219.217C208.728 219.217 233.555 208.342 256.183 187.936C258.883 185.501 260.318 183.398 262.652 180.817C269.033 173.757 274.633 165.395 278.861 156.297C286.461 139.939 289.121 127.397 289.121 108.188C289.121 80.1766 276.121 51.8808 256.69 32.7416C214.098 -9.21015 142.533 -9.62133 99.6107 32.1448C93.3699 38.217 92.1026 39.2419 86.7785 46.5125C83.1006 51.5345 79.6686 56.7903 76.6329 62.9783C68.1759 80.2165 65.8086 93.9915 65.8086 113.469V113.469Z" fill="#D7FDFF"/>
<path fill-rule="evenodd" clip-rule="evenodd" d="M281.865 202.875C281.675 202.963 281.38 202.839 281.268 203.073C280.858 203.93 280.707 203.292 280.014 203.397L273.362 203.53C259.684 203.465 257.414 204.614 248.789 199.899C246.847 202.294 248.709 202.229 245.811 203.158C244.229 203.436 235.502 204.272 235.115 202.957C234.721 201.616 234.899 202.529 235.314 201.664L238.968 192.84C233.078 191.084 218.5 177.933 192.077 176.352L192.328 191.804C203.639 193.117 222.362 196.825 228.032 203.158L191.861 203.206L190.951 203.258L190.271 203.297L179.78 203.433L179.113 160.704L174.691 160.481C173.861 163.86 174.459 177.371 174.605 181.749L174.839 197.399C174.965 200.9 175.039 201.184 174.068 203.154L170.943 203.206L135.648 203.149C142.968 198.281 160.377 193.913 170.713 193.091L170.727 176.537C162.03 176.765 153.664 178.287 145.287 180.216C136.754 182.18 130.164 184.971 122.305 187.294L128.28 201.511L128.162 203.527L113.457 203.044L109.082 194.587C106.749 196.198 105.659 196.782 103.368 198.654C99.3958 201.899 100.075 203.073 98.3775 203.527H81.9493C80.2332 202.671 80.4323 203.305 81.4819 202.13C82.9532 192.961 97.8994 168.517 102.525 162.068C117.538 141.136 134.513 139.407 138.028 135.959C133.663 132.407 134.313 134.188 133.306 127.445C132.723 123.546 131.864 125.672 127.668 119.677C123.894 114.285 121.071 110.458 118.671 102.63C114.457 88.8801 114.004 69.5104 118.064 55.4913C135.626 -5.14895 215.051 -10.3907 240.972 45.8819C250.712 67.0267 250.517 99.6191 235.054 119.598C233.47 121.644 230.27 124.54 229.43 126.647C229.43 133.787 228.615 133.341 224.54 136.606C233.145 140.656 237.739 141.337 244.992 146.841C250.957 151.367 255.92 156.32 260.184 162.182C267.372 172.065 277.056 189.134 281.866 202.875L281.865 202.875ZM153.474 5.5365C152.655 6.64899 154.814 7.33196 151.863 6.4546L150.954 7.33196C147.825 9.797 145.591 9.20744 137.617 14.9381C134.887 16.872 132.807 19.0167 130.554 20.9815L127.655 24.7726C126.036 28.1441 127.883 25.0075 125.178 27.6308C120.58 32.0901 114.847 43.9608 112.646 49.9975C110.839 54.9358 108.515 63.7812 108.957 69.4062L108.642 82.4898L108.706 85.3811L110.166 97.1511C111.203 101.121 113.031 105.268 112.961 109.008L113.804 110.262C115.166 111.835 117.833 117.328 118.523 119.432C119.833 120.475 121.986 123.908 123.339 125.523C125.635 128.264 126.373 127.427 126.613 132.336C126.042 134.319 126.502 133.561 125.057 134.789C123.797 135.859 123.903 135.421 122.593 136.045C116.091 139.141 112.317 143.213 109.267 144.446C108.037 146.794 104.798 148.953 102.789 151.179C101.762 152.318 100.628 153.332 99.5864 154.65C98.093 156.542 99.0957 156.2 96.8041 157.806C96.2233 159.33 94.562 162.117 92.9883 163.137C91.8583 165.481 88.9486 170.79 87.3161 172.855L85.0842 176.446C83.7598 181.475 79.8529 180.853 69.1881 182.263C55.0642 184.13 16.2876 190.101 19.6867 170.796C22.2126 156.45 53.001 139.805 66.2502 131.132C67.0886 129.994 67.3065 130.288 67.4156 128.108C67.5827 124.785 67.1872 126.007 66.499 125.292C62.4594 126.46 52.3865 133.189 48.5014 135.592L32.0213 146.652C7.76743 162.491 -25.59 196.601 31.3613 194.673C48.6364 194.088 63.3679 190.684 79.6026 187.964L73.0083 203.157C65.5792 203.157 58.15 203.157 50.7211 203.157C37.5328 203.157 38.9173 201.521 32.7519 207.712C14.0137 226.532 16.4526 220.198 16.2829 235.378C16.1979 242.969 16.1325 240.994 24.659 249.509C37.9116 262.745 34.4005 262.438 44.7603 262.359L77.5159 262.362C75.9768 265.335 70.1685 270.348 67.5111 272.996C64.8776 275.621 65.2969 276.685 65.445 281.581C65.5928 286.455 66.2336 285.783 69.0522 288.512C84.0293 303.017 75.2807 299.398 99.1205 299.398C153.974 299.398 208.827 299.398 263.681 299.398C287.635 299.398 279.059 302.488 293.618 288.387C296.473 285.622 296.63 286.124 296.681 280.811C296.795 268.98 292.635 273.884 284.681 262.405C292.014 262.206 299.516 262.353 306.868 262.353C316.523 262.353 323.436 263.826 327.116 260.068C331.003 256.1 334.278 252.717 338.188 248.81C346.567 240.436 345.865 243.04 345.784 234.624C345.659 221.679 346.863 225.064 339.819 218.047C334.1 212.349 326.957 203.338 321.823 203.103L289.058 203.157C286.852 198.242 284.923 192.587 282.581 187.409C280.976 183.86 276.261 175.751 275.614 172.995C272.736 169.197 269.967 164.208 267.669 160.716C257.694 145.556 249.787 142.014 236.523 133.734C239.865 132.439 242.504 130.328 245.827 129.986C246.581 129.157 246.178 129.527 247.19 128.804C247.771 128.388 247.964 128.298 248.631 127.948C249.604 127.437 250.657 127.035 251.672 126.586C253.807 125.641 255.858 124.613 257.954 123.702C263.411 120.681 269.898 117.361 275.494 114.626L284.221 109.878C286.542 108.368 290.804 105.77 292.663 105.023C296.981 103.532 307.317 96.8625 311.597 94.1271C325.073 85.5168 352.722 66.6371 357.978 52.6549C369.21 22.7776 283.918 40.5558 269.633 45.0119C268.769 46.1974 269.385 46.6024 268.965 45.7763C269.836 48.2009 269.798 48.0234 271.77 49.6556L273.843 48.9368C279.303 49.1007 286.805 46.9784 292.686 46.1939C299.275 45.3148 306.011 44.3807 312.825 44.3615C356.6 44.2401 336.778 68.5353 316.684 82.8567C308.93 88.3834 300.114 95.5512 291.206 99.9552C290.071 101.296 285.981 103.494 283.795 103.961C282.347 105.878 281.279 106.116 279.21 107.22C277.41 108.18 276.319 109.008 274.302 109.776C269.325 113.368 261.563 116.563 255.402 119.827C249.548 122.93 242.216 126.411 236.393 128.713C240.757 124.447 244.499 118.363 248.137 111.405C248.309 110.082 247.91 110.258 249.103 110.558C249.12 108.377 248.943 108.974 249.712 106.711C250.592 104.121 250.111 105.045 251.422 103.826C251.392 99.2993 253.688 95.7573 252.979 90.8027C252.795 87.9466 253.836 84.4369 253.975 81.2568C254.12 77.9438 254.002 74.9209 253.947 71.6329L252.334 58.3157C249.372 43.8869 242.214 33.0652 233.657 23.4189C225.404 14.1163 218.737 11.2951 216.713 9.16554L215.357 8.15607C205.088 4.85469 199.096 0.501359 185.526 0.0459474C175.21 -0.300049 161.52 1.28647 153.474 5.53854L153.474 5.5365Z" fill="#D7FDFF"/>
<path fill-rule="evenodd" clip-rule="evenodd" d="M187.941 138.027L187.172 138.615L175.541 138.656C169.859 137.077 163.03 137.037 156.928 135.144C152.848 133.878 142.866 130.549 143.251 126.252C152.024 131.689 162.627 134.992 175.372 135.641H187.447C201.939 134.619 209.306 131.973 219.631 126.175C219.869 128.692 221.368 127.735 214.862 131.415C212.709 132.632 209.748 133.845 207.013 134.778C202.236 136.409 193.28 138.273 187.941 138.027V138.027ZM175.452 126.757H187.366C191.369 126.336 196.062 126.22 200.183 125.69C204.192 125.174 208.53 124.131 212.041 123.936C206.7 127.161 195.089 129.813 187.371 129.521L175.434 129.525C167.371 129.819 156.538 127.107 150.853 124.013C153.695 124.067 158.474 125.09 162.024 125.592C166.01 126.155 171.61 126.44 175.452 126.757H175.452ZM186.529 134.372L176.211 134.395C169.754 133.712 163.087 132.82 157.222 131.09L145.307 125.903C142.96 124.354 143.179 124.713 142.859 121.855C149.15 124.586 152.186 127.111 160.048 128.999C176.686 132.994 206.024 131.721 219.567 121.784C220.021 124.323 220.153 124.584 214.554 127.409C205.597 131.928 196.875 133.385 186.529 134.372H186.529ZM125.935 74.5225C125.935 43.2679 151.161 16.6785 182.543 17.2683C235.949 18.272 250.254 87.5825 224.862 115.367C213.27 128.05 149.222 126.873 138.207 115.871C128.333 106.009 125.935 90.7832 125.935 74.5225H125.935ZM81.4889 202.128C84.4693 204.324 93.8071 202.873 98.1034 202.873C96.5387 201.077 94.142 200.495 92.7758 198.874C94.9269 193.325 98.5934 186.654 101.28 181.786L101.881 180.799C113.149 157.316 132.808 143.591 159.262 143.591L159.314 137.879C172.308 142.123 172.008 134.274 171.456 149.792L171.36 202.873L173.074 202.873L172.578 157.66C172.208 153.416 171.73 144.129 173.104 140.306C176.996 139.592 175.208 140.756 179.118 140.478C179.118 152.879 181.504 144.65 180.492 158.379L180.307 202.873H182.529L182.214 158.996C182.794 155.649 182.198 152.855 182.549 149.748C183.053 145.289 183.7 149.564 183.7 140.478C191.979 141.066 190.246 133.884 190.212 167.599C190.2 179.101 190.003 190.816 190.244 202.293L191.307 202.171L191.337 150.451C190.938 138.643 190.606 140.796 193.523 139.742L203.471 137.719L203.376 143.733C224.158 142.294 241.443 152.906 252.826 168.038C254.264 169.95 255.863 172.714 257.56 174.513C258.782 174.203 258.426 174.061 258.187 175.372L258.754 176.275C260.681 182.665 268.407 191.842 269.972 199.713L264.272 202.374L281.872 202.873C277.063 189.131 267.378 172.062 260.19 162.18C255.926 156.318 250.964 151.365 244.999 146.839C237.746 141.335 233.152 140.654 224.547 136.604C228.622 133.339 229.436 133.785 229.436 126.645C230.276 124.538 233.477 121.641 235.06 119.596C250.523 99.6165 250.718 67.0244 240.978 45.8796C215.057 -10.3934 135.633 -5.1516 118.071 55.4889C114.011 69.5078 114.463 88.8778 118.678 102.628C121.077 110.456 123.901 114.283 127.674 119.675C131.87 125.67 132.73 123.543 133.312 127.442C134.32 134.185 133.67 132.405 138.034 135.956C134.52 139.405 117.544 141.133 102.531 162.066C97.9058 168.514 82.9596 192.959 81.4883 202.128L81.4889 202.128Z" fill="black"/>
<path fill-rule="evenodd" clip-rule="evenodd" d="M232.215 73.7811C232.215 82.1494 231.513 87.4548 228.569 95.2629C226.253 101.406 222.5 103.362 217.16 106.222C187.941 121.873 140.954 113.695 133.939 94.8037C129.471 82.7698 129.165 68.913 133.568 56.8613C136.489 48.8691 137.624 49.0867 144.295 45.2299C164.57 33.507 196.468 33.0161 217.102 44.4197C219.821 45.9224 221.58 47.0381 223.934 48.7323C229.978 53.0836 232.215 66.1998 232.215 73.7814V73.7811ZM125.918 74.5255C125.918 90.7859 128.315 106.012 138.19 115.874C149.205 126.876 213.254 128.053 224.845 115.37C250.238 87.5858 235.932 18.2753 182.526 17.2713C151.144 16.6818 125.918 43.2709 125.918 74.5255H125.918Z" fill="#D7FDFF"/>
<path fill-rule="evenodd" clip-rule="evenodd" d="M150.259 72.2016C150.165 81.0768 151.556 86.4731 152.606 94.6309C147.853 90.2197 145.933 83.58 145.432 75.2309C142.267 76.2969 142.421 76.1185 141.973 80.136C141.685 82.7125 141.623 85.3737 141.644 87.9493C141.686 93.0086 142.315 96.9458 143.286 101.847C144.474 101.608 144.128 101.406 144.128 102.685C153.022 108.9 169.433 112.523 182.517 112.322C193.705 112.15 213.081 108.03 219.367 102.039C220.437 96.5204 222.798 80.2105 219.412 76.307C217.204 73.7614 204.11 69.159 199.335 68.0884C178.439 63.4033 167.763 67.1217 150.259 72.2016H150.259Z" fill="#00FF88"/>
<path fill-rule="evenodd" clip-rule="evenodd" d="M143.299 101.848L144.141 102.685C144.141 101.406 144.487 101.608 143.299 101.848C142.327 96.9461 141.699 93.0092 141.657 87.9499C141.636 85.3746 141.698 82.7131 141.985 80.1366C142.433 76.1191 142.28 76.2975 145.445 75.2315C145.773 66.341 147.838 59.524 152.547 54.4985L150.271 72.2022C167.775 67.1223 178.451 63.4039 199.347 68.089C204.122 69.1596 217.217 73.7623 219.425 76.3076C222.81 80.2111 220.45 96.521 219.379 102.04C223.991 99.9608 224.994 98.8105 226.834 93.5199C231.211 80.9319 231.134 66.861 225.976 54.8954C223.427 48.9818 213.076 44.6462 207.032 42.56C187.039 35.6593 162.003 37.0022 144.012 47.931C140.459 50.089 138.163 51.2667 136.595 55.4128C133.685 63.11 131.758 72.222 133.042 81.683C134.014 88.8514 135.613 99.6541 143.299 101.848H143.299Z" fill="#3A6242"/>
<path fill-rule="evenodd" clip-rule="evenodd" d="M114.002 180.364C118.91 166.724 137.199 157.225 154.52 157.96C151.836 159.783 146.635 161.248 143.264 162.617C130.898 167.639 124.003 172.935 114.002 180.364ZM101.866 180.8C102.139 182.037 102.445 181.788 101.265 181.788C98.5787 186.655 94.9118 193.327 92.761 198.875C94.1273 200.496 96.5239 201.079 98.0886 202.875C93.7923 202.875 84.4545 204.326 81.4741 202.13C80.4242 203.305 80.2251 202.671 81.9414 203.527H98.3697C100.067 203.073 99.3879 201.899 103.36 198.654C105.652 196.782 106.741 196.198 109.074 194.587L113.449 203.044L128.154 203.527L128.272 201.51C126.944 202.923 129.663 202.875 124.431 202.875C122.076 202.292 122.901 201.048 121.965 194.587C121.611 192.143 120.815 188.22 120.944 185.593C122.174 188.412 121.275 186.103 122.297 187.293C130.156 184.971 136.746 182.18 145.279 180.215C153.656 178.287 162.022 176.765 170.719 176.537L170.705 193.09L170.935 203.206L174.06 203.155C175.031 201.183 174.958 200.9 174.831 197.399L174.597 181.749C174.451 177.371 173.853 163.86 174.683 160.481L179.105 160.704L179.772 203.433L190.263 203.297L190.229 202.294C189.168 201.183 189.311 200.344 189.32 197.445C189.326 195.695 189.368 193.932 189.37 192.174C189.376 185.41 189.838 163.629 188.997 159.717L182.198 158.997L182.513 202.875H180.292L180.477 158.38L172.562 157.661L173.058 202.875L171.344 202.875L171.44 149.794C152.408 150.828 146.025 152.084 130.581 159.578C116.194 166.56 104.971 179.205 101.865 180.8H101.866Z" fill="#566566"/>
<path fill-rule="evenodd" clip-rule="evenodd" d="M235.312 201.664C234.897 202.53 234.719 201.617 235.113 202.958C235.5 204.272 244.227 203.436 245.809 203.158C248.707 202.23 246.845 202.295 248.787 199.9C257.412 204.614 259.682 203.465 273.36 203.53L280.013 203.397C280.705 203.293 280.856 203.93 281.266 203.074C281.378 202.839 281.673 202.964 281.863 202.875L264.262 202.376L269.962 199.714C268.398 191.844 260.672 182.667 258.745 176.277C257.655 176.277 257.933 176.51 258.178 175.374C257.075 175.393 257.334 175.639 257.551 174.515C255.184 173.842 248.507 168.469 243.415 165.498C225.029 154.772 212.101 153.319 191.327 150.453L191.297 202.173L190.949 203.258L191.859 203.206L192.327 191.804L192.075 176.352C218.498 177.933 233.076 191.084 238.966 192.84C240.548 190.908 241.022 189.224 241.955 187.608C241.654 190.067 241.15 193.034 240.701 195.971C240.451 197.608 240.447 198.4 240.131 199.838C239.177 204.172 240.729 201.462 238.363 202.875C233.269 202.875 236.643 203.012 235.312 201.664V201.664Z" fill="#566566"/>
<path fill-rule="evenodd" clip-rule="evenodd" d="M219.387 102.04C213.101 108.032 193.726 112.151 182.538 112.323C169.453 112.524 153.043 108.9 144.148 102.686L143.307 101.848C135.621 99.6545 134.022 88.8517 133.049 81.6833C131.766 72.2224 133.693 63.1106 136.603 55.4132C138.171 51.267 140.467 50.0893 144.02 47.9313C162.011 37.0026 187.047 35.6596 207.04 42.5604C213.084 44.6465 223.435 48.9824 225.984 54.8958C231.142 66.861 231.219 80.9322 226.842 93.5202C225.002 98.8109 223.999 99.9612 219.387 102.04ZM232.234 73.7786C232.234 66.197 229.998 53.0808 223.953 48.7295C221.6 47.0353 219.841 45.9196 217.122 44.4169C196.488 33.013 164.589 33.5042 144.315 45.2271C137.644 49.0839 136.509 48.8663 133.588 56.8585C129.184 68.9102 129.49 82.767 133.959 94.8009C140.974 113.692 187.961 121.87 217.18 106.219C222.519 103.359 226.272 101.403 228.588 95.2601C231.532 87.452 232.234 82.1466 232.234 73.7783V73.7786Z" fill="black"/>
<path fill-rule="evenodd" clip-rule="evenodd" d="M191.317 150.454C212.09 153.321 225.019 154.774 243.404 165.499C248.497 168.469 255.174 173.844 257.54 174.516C257.323 175.64 257.065 175.394 258.167 175.375C257.922 176.511 257.645 176.278 258.734 176.278L258.167 175.375C258.406 174.064 258.762 174.206 257.54 174.516C255.843 172.717 254.244 169.953 252.806 168.041C241.424 152.909 224.138 142.297 203.356 143.736L203.451 137.722L193.503 139.745C190.587 140.8 190.919 138.646 191.317 150.455V150.454Z" fill="#222829"/>
<path fill-rule="evenodd" clip-rule="evenodd" d="M101.875 180.802L101.273 181.79C102.454 181.79 102.147 182.039 101.875 180.802C104.98 179.207 116.203 166.562 130.591 159.58C146.034 152.085 152.418 150.83 171.449 149.796C172.002 134.277 172.302 142.127 159.307 137.883L159.256 143.595C132.801 143.595 113.143 157.32 101.875 180.802V180.802Z" fill="#222829"/>
<path fill-rule="evenodd" clip-rule="evenodd" d="M191.86 203.205L228.031 203.157C222.361 196.824 203.638 193.116 192.327 191.803L191.859 203.205H191.86Z" fill="#00FF88"/>
<path fill-rule="evenodd" clip-rule="evenodd" d="M170.947 203.205L170.717 193.089C160.381 193.911 142.972 198.279 135.652 203.147L170.947 203.204V203.205Z" fill="#00FF88"/>
<path fill-rule="evenodd" clip-rule="evenodd" d="M176.216 134.396C175.23 132.54 175.897 133.996 175.461 131.427L187.368 131.654C186.786 134.526 187.433 132.568 186.534 134.373C196.88 133.386 205.602 131.929 214.559 127.41C220.158 124.585 220.026 124.323 219.572 121.785C206.028 131.722 176.691 132.994 160.053 129C152.19 127.112 149.155 124.587 142.863 121.856C143.184 124.713 142.965 124.355 145.311 125.904L157.227 131.091C163.092 132.821 169.758 133.713 176.215 134.396L176.216 134.396Z" fill="#566566"/>
<path fill-rule="evenodd" clip-rule="evenodd" d="M182.211 159L189.01 159.72C189.85 163.632 189.389 185.413 189.382 192.176C189.381 193.935 189.338 195.698 189.333 197.448C189.324 200.346 189.181 201.186 190.242 202.297L190.276 203.3L190.956 203.261L191.304 202.176L190.242 202.297C190 190.82 190.197 179.106 190.209 167.604C190.244 133.889 191.976 141.07 183.698 140.483C183.698 149.569 183.05 145.293 182.546 149.752C182.196 152.859 182.791 155.654 182.212 159L182.211 159Z" fill="#222829"/>
<path fill-rule="evenodd" clip-rule="evenodd" d="M114.004 180.361C124.004 172.932 130.9 167.636 143.266 162.614C146.637 161.245 151.838 159.78 154.522 157.957C137.201 157.222 118.912 166.721 114.004 180.361Z" fill="#D7FDFF"/>
<path fill-rule="evenodd" clip-rule="evenodd" d="M145.457 75.2291C145.958 83.5782 147.878 90.2179 152.631 94.6291C151.581 86.4713 150.19 81.0753 150.284 72.1998L152.559 54.4961C147.85 59.5216 145.785 66.3386 145.457 75.2291Z" fill="#D7FDFF"/>
<path fill-rule="evenodd" clip-rule="evenodd" d="M172.555 157.657L180.469 158.376C181.482 144.647 179.095 152.876 179.095 140.475C175.186 140.753 176.973 139.589 173.081 140.303C171.707 144.126 172.186 153.413 172.555 157.656V157.657Z" fill="#222829"/>
<path fill-rule="evenodd" clip-rule="evenodd" d="M187.439 135.642L187.933 138.029C186.831 137.856 187.005 137.574 187.165 138.617L187.933 138.029C193.273 138.275 202.228 136.41 207.006 134.78C209.74 133.846 212.701 132.634 214.854 131.416C221.36 127.737 219.862 128.694 219.624 126.177C209.298 131.974 201.931 134.621 187.439 135.642V135.642Z" fill="#566566"/>
<path fill-rule="evenodd" clip-rule="evenodd" d="M175.52 138.658L175.35 135.643C162.605 134.995 152.003 131.691 143.23 126.255C142.845 130.552 152.827 133.88 156.906 135.146C163.009 137.04 169.838 137.079 175.52 138.658Z" fill="#566566"/>
<path fill-rule="evenodd" clip-rule="evenodd" d="M187.355 126.757L187.361 129.522C195.079 129.814 206.689 127.161 212.031 123.937C208.519 124.131 204.182 125.174 200.173 125.69C196.051 126.219 191.359 126.336 187.355 126.757Z" fill="#566566"/>
<path fill-rule="evenodd" clip-rule="evenodd" d="M128.268 201.51L122.293 187.293C121.271 186.102 122.17 188.411 120.94 185.592C120.811 188.219 121.606 192.142 121.961 194.587C122.897 201.047 122.072 202.291 124.427 202.874C129.659 202.874 126.94 202.922 128.268 201.51Z" fill="black"/>
<path fill-rule="evenodd" clip-rule="evenodd" d="M175.429 129.526L175.446 126.758C171.605 126.441 166.004 126.157 162.018 125.593C158.469 125.091 153.689 124.068 150.848 124.015C156.532 127.109 167.365 129.82 175.429 129.526Z" fill="#566566"/>
<path fill-rule="evenodd" clip-rule="evenodd" d="M135.566 11.1938C135.83 13.3341 135.491 11.8651 136.434 13.3548C137.81 15.5291 136.359 12.0854 137.609 14.9357C145.582 9.20512 147.816 9.79468 150.946 7.32964L151.855 6.45228C154.805 7.32964 152.647 6.64637 153.466 5.53418C151.066 5.86912 151.895 5.45677 151.855 6.45228C146.926 6.41066 140.334 9.65355 135.566 11.1935V11.1938Z" fill="#C2C8E2"/>
<path fill-rule="evenodd" clip-rule="evenodd" d="M238.963 192.838L235.309 201.662C236.64 203.01 233.265 202.873 238.359 202.873C240.726 201.46 239.173 204.169 240.127 199.836C240.444 198.397 240.448 197.605 240.698 195.969C241.146 193.032 241.65 190.065 241.952 187.605C241.018 189.222 240.544 190.906 238.963 192.838V192.838Z" fill="black"/>
<path fill-rule="evenodd" clip-rule="evenodd" d="M175.422 129.528L187.358 129.524L187.353 126.76H175.439L175.422 129.528Z" fill="#D7FDFF"/>
<path fill-rule="evenodd" clip-rule="evenodd" d="M176.2 134.398L186.519 134.375C187.418 132.57 186.771 134.528 187.353 131.656L175.445 131.429C175.882 133.999 175.215 132.542 176.2 134.398V134.398Z" fill="#D7FDFF"/>
<path fill-rule="evenodd" clip-rule="evenodd" d="M175.851 136.237C177.961 136.253 179.416 136.681 181.019 136.712C182.88 136.748 184.609 136.249 186.935 136.237C186.308 138.186 187.566 137.322 185.504 137.917C185.439 137.936 182.127 137.935 181.774 137.933C172.631 137.899 177.015 137.989 175.851 136.237V136.237ZM175.525 138.658L187.156 138.617C186.997 137.574 186.822 137.856 187.925 138.029L187.43 135.643H175.355L175.525 138.658Z" fill="#9AB5B6"/>
<path fill-rule="evenodd" clip-rule="evenodd" d="M175.862 136.236C177.026 137.988 172.642 137.898 181.785 137.933C182.138 137.934 185.45 137.935 185.515 137.917C187.577 137.321 186.319 138.185 186.946 136.237C184.62 136.248 182.891 136.747 181.03 136.711C179.427 136.68 177.972 136.252 175.862 136.237V136.236Z" fill="#D7FDFF"/>
<path d="M78.7416 215.78V244.487H73.898C71.9861 244.487 70.447 243.725 70.447 242.796V215.78H56.8711V220.458H60.9535V242.787C60.9535 246.29 66.7537 249.142 73.898 249.142H88.2349V215.779H78.7416V215.78Z" fill="#0E1324"/>
<path d="M112.86 215.796V221.96L103.253 215.796H93.7109V249.143H103.253V222.643L112.86 228.799V249.143H122.402V215.796H112.86Z" fill="#0E1324"/>
<path d="M127.824 215.779V249.142H137.366V215.779H127.824Z" fill="#0E1324"/>
<path d="M160.972 215.779V244.463H159.109C156.97 244.463 155.788 243.454 155.593 242.501L151.138 215.779H141.531L146.083 242.994C146.812 246.553 152.288 249.142 159.109 249.142H170.546V215.779H160.972Z" fill="#0E1324"/>
<path d="M203.361 224.986V215.779H188.959C181.766 215.779 175.934 218.639 175.934 222.166V249.142H190.336C197.529 249.142 203.361 246.282 203.361 242.755V235.455H193.819V242.755C193.819 243.701 192.264 244.463 190.336 244.463H185.476V233.922C185.476 232.985 187.031 232.222 188.96 232.222H198.599V227.543H188.96C187.744 227.543 186.578 227.631 185.476 227.782V222.166C185.476 221.221 187.031 220.458 188.96 220.458H193.819V224.986H203.361V224.986Z" fill="#0E1324"/>
<path d="M235.39 237.973C234.661 234.406 229.185 231.817 222.365 231.817H218.363V228.489H222.365C226.27 228.489 235.357 227.774 235.357 220.545L235.373 215.779H208.805V249.142H218.363V236.496H222.365C224.503 236.496 225.686 237.505 225.88 238.458L228.197 249.142H237.804L235.39 237.974V237.973ZM218.363 220.458H226.415C226.415 222.769 224.422 223.802 222.365 223.802H218.363V220.458Z" fill="#0E1324"/>
<path d="M269.239 223.913V215.779H254.902C247.758 215.779 241.942 218.631 241.942 222.134V222.452C241.942 225.931 246.689 228.521 251.338 231.014C255.615 233.334 259.746 235.519 259.746 238.132V242.787C259.746 243.724 258.191 244.487 256.279 244.487H251.435V235.701H241.941V249.142H256.279C263.423 249.142 269.239 246.29 269.239 242.787V238.132C269.239 233.7 263.472 230.602 258.401 227.869C254.837 225.939 251.435 224.12 251.435 222.452V222.134C251.435 221.197 252.991 220.434 254.902 220.434H259.746V223.914H269.239L269.239 223.913Z" fill="#0E1324"/>
<path d="M287.725 215.779C280.531 215.779 274.699 218.647 274.699 222.166V249.142H289.118C296.294 249.142 302.127 246.274 302.127 242.755V215.779H287.725ZM292.584 242.755C292.584 243.701 291.029 244.463 289.118 244.463H284.241V222.166C284.241 221.22 285.796 220.458 287.725 220.458H292.584V242.755Z" fill="#0E1324"/>
<path d="M127.362 285.016C127.362 286.97 126.718 288.412 125.431 289.341C124.168 290.247 122.905 290.699 121.642 290.699H115.637C114.374 290.699 113.147 290.247 111.955 289.341C111.383 288.864 110.943 288.263 110.633 287.536C110.323 286.809 110.168 285.969 110.168 285.016V274.828C110.168 272.898 110.764 271.468 111.955 270.538C112.551 270.109 113.165 269.77 113.796 269.52C114.428 269.269 115.041 269.145 115.637 269.145H121.643C122.214 269.145 122.846 269.258 123.537 269.484C124.228 269.711 124.872 270.014 125.467 270.396C126.039 270.801 126.498 271.361 126.844 272.075C127.189 272.79 127.362 273.636 127.362 274.614V276.401C127.362 277.545 126.707 278.117 125.396 278.117C124.086 278.117 123.43 277.545 123.43 276.401V274.864C123.43 274.268 123.245 273.726 122.876 273.237C122.507 272.749 121.881 272.504 120.999 272.504H116.531C115.649 272.504 115.024 272.749 114.654 273.237C114.285 273.726 114.1 274.268 114.1 274.864V284.98C114.1 285.552 114.285 286.088 114.654 286.589C115.024 287.089 115.649 287.339 116.531 287.339H120.999C121.881 287.339 122.507 287.089 122.876 286.589C123.245 286.088 123.43 285.552 123.43 284.98V283.336C123.43 282.216 124.086 281.656 125.396 281.656C126.707 281.656 127.362 282.216 127.362 283.336V285.016H127.362Z" fill="#0E1324"/>
<path d="M153.99 269.184C154.609 269.184 155.247 269.315 155.902 269.577C156.557 269.839 157.195 270.173 157.814 270.578H157.778C158.398 271.031 158.875 271.62 159.208 272.347C159.542 273.074 159.709 273.914 159.709 274.867V285.019C159.709 286.973 159.066 288.415 157.779 289.345C156.516 290.25 155.253 290.703 153.99 290.703H148.27C147.651 290.703 147.019 290.596 146.376 290.381C145.732 290.167 145.101 289.821 144.481 289.345C143.194 288.439 142.551 286.997 142.551 285.019V274.867C142.551 273.914 142.718 273.074 143.051 272.347C143.385 271.62 143.862 271.031 144.481 270.578H144.445C145.041 270.173 145.673 269.839 146.34 269.577C147.007 269.315 147.651 269.184 148.27 269.184H153.99ZM153.346 287.343C154.228 287.343 154.854 287.092 155.223 286.592C155.592 286.091 155.777 285.555 155.777 284.983V274.903C155.777 274.307 155.592 273.765 155.223 273.276C154.854 272.788 154.228 272.543 153.346 272.543H148.914C148.032 272.543 147.406 272.788 147.037 273.276C146.668 273.765 146.483 274.307 146.483 274.903V284.983C146.483 285.555 146.668 286.091 147.037 286.592C147.406 287.092 148.032 287.343 148.914 287.343H153.346Z" fill="#0E1324"/>
<path d="M188.196 272.54H181.297C180.32 272.54 179.677 272.826 179.367 273.398C179.033 273.899 178.866 274.482 178.866 275.15V285.445C178.866 286.064 179.057 286.535 179.438 286.857C179.819 287.178 180.451 287.339 181.333 287.339H185.014C185.872 287.339 186.301 287.9 186.301 289.019C186.301 289.496 186.2 289.895 185.997 290.217C185.795 290.539 185.467 290.699 185.014 290.699H180.689C179.187 290.699 177.853 290.318 176.685 289.556C175.517 288.841 174.934 287.482 174.934 285.48V274.828C174.934 273.851 175.088 273.005 175.398 272.29C175.708 271.575 176.197 270.991 176.864 270.539C178.127 269.633 179.39 269.18 180.653 269.18H188.195V263.818C188.195 262.674 188.851 262.103 190.161 262.103C191.472 262.103 192.127 262.674 192.127 263.818V289.198C192.127 290.342 191.472 290.914 190.161 290.914C189.661 290.914 189.208 290.824 188.803 290.645C188.398 290.467 188.195 290.067 188.195 289.448V272.54L188.196 272.54Z" fill="#0E1324"/>
<path d="M212.955 290.703C212.216 290.703 211.513 290.602 210.846 290.399C210.178 290.197 209.535 289.905 208.916 289.523V289.559C207.748 288.82 207.164 287.462 207.164 285.484V283.733C207.164 282.756 207.337 281.904 207.683 281.176C208.028 280.45 208.511 279.872 209.13 279.443H209.095C209.691 279.038 210.322 278.734 210.989 278.531C211.656 278.329 212.3 278.228 212.919 278.228H220.819V274.903C220.819 274.307 220.635 273.765 220.265 273.276C219.896 272.788 219.27 272.544 218.388 272.544H214.206C213.301 272.544 212.675 272.764 212.33 273.205C211.984 273.646 211.811 274.164 211.811 274.76V275.046C211.811 276.285 211.144 276.905 209.809 276.905C208.475 276.905 207.807 276.285 207.807 275.046V274.724C207.807 273.747 207.98 272.925 208.326 272.258C208.671 271.59 209.142 271.031 209.738 270.578H209.702C210.322 270.173 210.971 269.839 211.65 269.577C212.33 269.315 212.979 269.184 213.598 269.184H219.032C219.628 269.184 220.265 269.315 220.944 269.577C221.623 269.839 222.261 270.173 222.856 270.578H222.821C223.44 271.031 223.917 271.62 224.251 272.347C224.584 273.074 224.751 273.914 224.751 274.867V289.202C224.751 290.346 224.096 290.917 222.785 290.917C222.523 290.917 222.279 290.905 222.052 290.882C221.826 290.858 221.623 290.792 221.445 290.685C221.266 290.577 221.123 290.423 221.016 290.22C220.908 290.018 220.855 289.75 220.855 289.416L220.819 281.588H213.598C213.074 281.588 212.669 281.647 212.383 281.766C212.097 281.885 211.871 282.076 211.704 282.338C211.513 282.743 211.376 283.059 211.293 283.285C211.209 283.512 211.168 283.768 211.168 284.054V285.448C211.168 286.068 211.352 286.538 211.722 286.86C212.091 287.182 212.729 287.343 213.634 287.343H217.637C218.519 287.343 218.96 287.903 218.96 289.023C218.96 289.5 218.853 289.899 218.638 290.22C218.424 290.542 218.09 290.703 217.637 290.703H212.954H212.955Z" fill="#0E1324"/>
<path d="M243.949 289.202C243.949 290.346 243.294 290.917 241.983 290.917C240.625 290.917 239.945 290.346 239.945 289.202V274.403C239.945 272.448 240.529 271.09 241.697 270.327C242.865 269.565 244.211 269.184 245.736 269.184H249.811C250.693 269.184 251.134 269.744 251.134 270.864C251.181 271.984 250.741 272.543 249.811 272.543H246.022C245.164 272.543 244.604 272.71 244.342 273.044C244.08 273.377 243.949 273.842 243.949 274.438V289.201L243.949 289.202Z" fill="#0E1324"/>
</svg>
